
            <svg id="trend-chart" width="660" height="400" title="Stack Overflow Trends Chart" version="1.1" xmlns="http://www.w3.org/2000/svg"><g></g><g class="chart-area" transform="translate(100, 20)"><g transform="translate(0,300)" fill="none" font-size="10" font-family="sans-serif" text-anchor="middle"><path class="domain" stroke="#000" d="M0.5,6V0.5H410.5V6"></path><g class="tick" opacity="1" transform="translate(15.620384200481288,0)"><line stroke="#000" y2="6" x1="0.5" x2="0.5"></line><text fill="#000" y="9" x="0.5" dy="0.71em" style="font-size: 12px;">2009</text></g><g class="tick" opacity="1" transform="translate(52.87455397892291,0)"><line stroke="#000" y2="6" x1="0.5" x2="0.5"></line><text fill="#000" y="9" x="0.5" dy="0.71em" style="font-size: 12px;">2010</text></g><g class="tick" opacity="1" transform="translate(90.12872375736453,0)"><line stroke="#000" y2="6" x1="0.5" x2="0.5"></line><text fill="#000" y="9" x="0.5" dy="0.71em" style="font-size: 12px;">2011</text></g><g class="tick" opacity="1" transform="translate(127.38289353580616,0)"><line stroke="#000" y2="6" x1="0.5" x2="0.5"></line><text fill="#000" y="9" x="0.5" dy="0.71em" style="font-size: 12px;">2012</text></g><g class="tick" opacity="1" transform="translate(164.73912953281885,0)"><line stroke="#000" y2="6" x1="0.5" x2="0.5"></line><text fill="#000" y="9" x="0.5" dy="0.71em" style="font-size: 12px;">2013</text></g><g class="tick" opacity="1" transform="translate(201.99329931126047,0)"><line stroke="#000" y2="6" x1="0.5" x2="0.5"></line><text fill="#000" y="9" x="0.5" dy="0.71em" style="font-size: 12px;">2014</text></g><g class="tick" opacity="1" transform="translate(239.2474690897021,0)"><line stroke="#000" y2="6" x1="0.5" x2="0.5"></line><text fill="#000" y="9" x="0.5" dy="0.71em" style="font-size: 12px;">2015</text></g><g class="tick" opacity="1" transform="translate(276.50163886814374,0)"><line stroke="#000" y2="6" x1="0.5" x2="0.5"></line><text fill="#000" y="9" x="0.5" dy="0.71em" style="font-size: 12px;">2016</text></g><g class="tick" opacity="1" transform="translate(313.8578748651564,0)"><line stroke="#000" y2="6" x1="0.5" x2="0.5"></line><text fill="#000" y="9" x="0.5" dy="0.71em" style="font-size: 12px;">2017</text></g><g class="tick" opacity="1" transform="translate(351.11204464359804,0)"><line stroke="#000" y2="6" x1="0.5" x2="0.5"></line><text fill="#000" y="9" x="0.5" dy="0.71em" style="font-size: 12px;">2018</text></g><g class="tick" opacity="1" transform="translate(388.36621442203966,0)"><line stroke="#000" y2="6" x1="0.5" x2="0.5"></line><text fill="#000" y="9" x="0.5" dy="0.71em" style="font-size: 12px;">2019</text></g></g><g class="grid-lines" transform="translate(0,300)" fill="none" font-size="10" font-family="sans-serif" text-anchor="middle"><path class="domain" stroke="#000" d="M0.5,-300V0.5H410.5V-300"></path><g class="tick" opacity="1" transform="translate(15.620384200481288,0)"><line stroke="#000" y2="-300" x1="0.5" x2="0.5" style="stroke: #ccc; fill: none;"></line></g><g class="tick" opacity="1" transform="translate(52.87455397892291,0)"><line stroke="#000" y2="-300" x1="0.5" x2="0.5" style="stroke: #ccc; fill: none;"></line></g><g class="tick" opacity="1" transform="translate(90.12872375736453,0)"><line stroke="#000" y2="-300" x1="0.5" x2="0.5" style="stroke: #ccc; fill: none;"></line></g><g class="tick" opacity="1" transform="translate(127.38289353580616,0)"><line stroke="#000" y2="-300" x1="0.5" x2="0.5" style="stroke: #ccc; fill: none;"></line></g><g class="tick" opacity="1" transform="translate(164.73912953281885,0)"><line stroke="#000" y2="-300" x1="0.5" x2="0.5" style="stroke: #ccc; fill: none;"></line></g><g class="tick" opacity="1" transform="translate(201.99329931126047,0)"><line stroke="#000" y2="-300" x1="0.5" x2="0.5" style="stroke: #ccc; fill: none;"></line></g><g class="tick" opacity="1" transform="translate(239.2474690897021,0)"><line stroke="#000" y2="-300" x1="0.5" x2="0.5" style="stroke: #ccc; fill: none;"></line></g><g class="tick" opacity="1" transform="translate(276.50163886814374,0)"><line stroke="#000" y2="-300" x1="0.5" x2="0.5" style="stroke: #ccc; fill: none;"></line></g><g class="tick" opacity="1" transform="translate(313.8578748651564,0)"><line stroke="#000" y2="-300" x1="0.5" x2="0.5" style="stroke: #ccc; fill: none;"></line></g><g class="tick" opacity="1" transform="translate(351.11204464359804,0)"><line stroke="#000" y2="-300" x1="0.5" x2="0.5" style="stroke: #ccc; fill: none;"></line></g><g class="tick" opacity="1" transform="translate(388.36621442203966,0)"><line stroke="#000" y2="-300" x1="0.5" x2="0.5" style="stroke: #ccc; fill: none;"></line></g></g><text x="205" y="360" class="axis-label x-axis-label" style="text-anchor: middle; font-weight: bold;">Year</text><g fill="none" font-size="10" font-family="sans-serif" text-anchor="end"><path class="domain" stroke="#000" d="M-6,300.5H0.5V0.5H-6"></path><g class="tick" opacity="1" transform="translate(0,300)"><line stroke="#000" x2="-6" y1="0.5" y2="0.5"></line><text fill="#000" x="-9" y="0.5" dy="0.32em" style="font-size: 12px;">0.00%</text></g><g class="tick" opacity="1" transform="translate(0,262.5)"><line stroke="#000" x2="-6" y1="0.5" y2="0.5"></line><text fill="#000" x="-9" y="0.5" dy="0.32em" style="font-size: 12px;">2.00%</text></g><g class="tick" opacity="1" transform="translate(0,225)"><line stroke="#000" x2="-6" y1="0.5" y2="0.5"></line><text fill="#000" x="-9" y="0.5" dy="0.32em" style="font-size: 12px;">4.00%</text></g><g class="tick" opacity="1" transform="translate(0,187.5)"><line stroke="#000" x2="-6" y1="0.5" y2="0.5"></line><text fill="#000" x="-9" y="0.5" dy="0.32em" style="font-size: 12px;">6.00%</text></g><g class="tick" opacity="1" transform="translate(0,150)"><line stroke="#000" x2="-6" y1="0.5" y2="0.5"></line><text fill="#000" x="-9" y="0.5" dy="0.32em" style="font-size: 12px;">8.00%</text></g><g class="tick" opacity="1" transform="translate(0,112.5)"><line stroke="#000" x2="-6" y1="0.5" y2="0.5"></line><text fill="#000" x="-9" y="0.5" dy="0.32em" style="font-size: 12px;">10.00%</text></g><g class="tick" opacity="1" transform="translate(0,75)"><line stroke="#000" x2="-6" y1="0.5" y2="0.5"></line><text fill="#000" x="-9" y="0.5" dy="0.32em" style="font-size: 12px;">12.00%</text></g><g class="tick" opacity="1" transform="translate(0,37.49999999999994)"><line stroke="#000" x2="-6" y1="0.5" y2="0.5"></line><text fill="#000" x="-9" y="0.5" dy="0.32em" style="font-size: 12px;">14.00%</text></g><g class="tick" opacity="1" transform="translate(0,0)"><line stroke="#000" x2="-6" y1="0.5" y2="0.5"></line><text fill="#000" x="-9" y="0.5" dy="0.32em" style="font-size: 12px;">16.00%</text></g></g><g class="grid-lines" fill="none" font-size="10" font-family="sans-serif" text-anchor="end"><path class="domain" stroke="#000" d="M410,300.5H0.5V0.5H410"></path><g class="tick" opacity="1" transform="translate(0,300)"><line stroke="#000" x2="410" y1="0.5" y2="0.5" style="stroke: #ccc; fill: none;"></line></g><g class="tick" opacity="1" transform="translate(0,262.5)"><line stroke="#000" x2="410" y1="0.5" y2="0.5" style="stroke: #ccc; fill: none;"></line></g><g class="tick" opacity="1" transform="translate(0,225)"><line stroke="#000" x2="410" y1="0.5" y2="0.5" style="stroke: #ccc; fill: none;"></line></g><g class="tick" opacity="1" transform="translate(0,187.5)"><line stroke="#000" x2="410" y1="0.5" y2="0.5" style="stroke: #ccc; fill: none;"></line></g><g class="tick" opacity="1" transform="translate(0,150)"><line stroke="#000" x2="410" y1="0.5" y2="0.5" style="stroke: #ccc; fill: none;"></line></g><g class="tick" opacity="1" transform="translate(0,112.5)"><line stroke="#000" x2="410" y1="0.5" y2="0.5" style="stroke: #ccc; fill: none;"></line></g><g class="tick" opacity="1" transform="translate(0,75)"><line stroke="#000" x2="410" y1="0.5" y2="0.5" style="stroke: #ccc; fill: none;"></line></g><g class="tick" opacity="1" transform="translate(0,37.49999999999994)"><line stroke="#000" x2="410" y1="0.5" y2="0.5" style="stroke: #ccc; fill: none;"></line></g><g class="tick" opacity="1" transform="translate(0,0)"><line stroke="#000" x2="410" y1="0.5" y2="0.5" style="stroke: #ccc; fill: none;"></line></g></g><g class="lines"><path class="line" d="M3.164052775703261,146.92230432600002L6.22603933283545,150.60174297967498L9.39009210853871,156.87136830375L12.456331424778027,169.69595723355002L15.620384200481288,162.77873070326248L18.784436976184548,170.13685660183123L21.64229109617459,166.8179351847375L24.80209111277072,163.9506026944125L27.864077669902912,166.3543541194125L31.028130445606177,158.37822891395626L34.09011700273837,167.76788770970626L37.25416977844162,173.20850670365624L40.41822255414488,170.22755039707502L43.48020911127708,169.51635727963128L46.64426188698033,164.19312134638125L49.71050120321965,165.385128643125L52.87455397892291,143.23178110434375L56.03860675462618,148.96500573125624L58.89646087461622,139.15671354268125L62.056260891212354,153.2729958993375L65.11824744834453,148.28393890708125L68.28230022404779,154.81187208024375L71.34428678117997,159.72529925270624L74.50833955688324,160.48948564935L77.67239233258651,154.5226749918L80.7343788897187,151.23688687271252L83.89843166542197,148.30919790570002L86.96467098166127,146.037641860875L90.12872375736453,145.8923406333375L93.2927765330678,143.906334759825L96.15063065305785,141.614468220075L99.31043066965397,144.7235354895375L102.37241722678615,139.40198723630624L105.53647000248942,149.8142031379125L108.59845655962161,147.6528801055125L111.76250933532488,147.6572322651L114.92656211102813,146.6127517632L117.98854866816032,141.486398708775L121.15260144386359,133.59359973622497L124.21884076010289,133.14898528423126L127.38289353580616,135.91739577973127L130.54694631150943,133.43771076211874L133.50686665007055,125.50714237912501L136.66666666666666,124.48993366245L139.72865322379886,129.55176370434376L142.8927059995021,140.25528672129374L145.9546925566343,137.71164420600002L149.11874533233757,136.9294451864625L152.28279810804082,134.50706890290002L155.34478466517302,130.26840460065L158.50883744087628,126.59795418568126L161.5750767571156,126.98346068214371L164.73912953281885,136.01947837989374L167.9031823085221,131.50009712510624L170.76103642851214,127.53102014161871L173.9208364451083,121.77671950908748L176.98282300224048,127.06327022870627L180.14687577794373,134.0441509861875L183.2088623350759,138.1090847496L186.3729151107792,133.48809167563124L189.53696788648244,115.30565528542499L192.59895444361464,108.61091865676875L195.7630072193179,99.89535903165L198.82924653555722,101.53149812803125L201.99329931126047,113.91089108911873L205.15735208696375,106.85020939158753L208.01520620695376,100.82924864030625L211.17500622354993,97.90378913191873L214.23699278068207,108.07679047792502L217.40104555638536,115.63987794343123L220.46303211351753,115.48298810743123L223.6270848892208,118.78772635815002L226.79113766492407,110.2842096414L229.85312422205627,104.72447990026873L233.01717699775952,98.03217169419378L236.0834163139988,101.23381253373753L239.2474690897021,111.92220189230625L242.41152186540535,111.917888877L245.2693759853954,103.4785152852375L248.42917600199155,102.86080814266876L251.49116255912372,111.423228048975L254.655215334827,120.49191475291875L257.7172018919592,119.30757161683124L260.8812546676624,122.1063798047625L264.0453074433657,119.93692825378128L267.10729400049786,112.11369737006248L270.27134677620114,111.36924920398124L273.33758609244046,118.584964906875L276.50163886814374,126.31371300423751L279.66569164384697,120.85974537901879L282.62561198240815,113.02456168299375L285.7854119990042,112.50478255325626L288.84739855613645,129.41535036573748L292.0114513318397,136.3768980565875L295.0734378889719,139.94967453168752L298.23749066467514,141.70508060010002L301.4015434403784,137.75719320054375L304.4635299975106,134.12675652423752L307.6275827732138,130.59446581319997L310.6938220894532,138.13451579895002L313.8578748651564,143.61479562793127L317.0219276408597,142.14234010651873L319.8797817608497,136.93820855735623L323.03958177744585,130.8990836539125L326.101568334578,133.772041015575L329.2656211102813,144.50120192308123L332.3276076674135,150.65675358103127L335.49166044311676,153.30109752986252L338.65571321882,150.6228315717L341.7176997759522,143.73428951649376L344.88175255165544,140.45331960090002L347.94799186789476,143.31013923376875L351.11204464359804,153.900689187675L354.27609741930127,150.8155711299L357.13395153929133,151.12583629811252L360.29375155588747,142.42506828868125L363.35573811301964,147.25693276301251L366.5197908887229,154.59473303015625L369.5817774458551,159.4285876698375L372.7458302215584,163.5265133740125L375.90988299726166,159.89281716871875L378.97186955439383,152.41307329711876L382.1359223300971,152.68796632869373L385.2021616463364,150.818570072775L388.36621442203966,159.65178691368752L391.53026719774294,158.58076344770623L394.38812131773295,157.64541597294374L397.5479213343291,160.56546120011248L400.6099078914613,159.99202741215L403.77396066716454,165.52249252771875L406.8359472242968,164.1540405465L410,170.02125997918125" data-legend="java" style="stroke: rgb(31, 119, 180); fill: none;"></path><path class="line" d="M3.164052775703261,256.95530525863126L6.22603933283545,260.705145939975L9.39009210853871,261.3448220966437L12.456331424778027,271.0261443367875L15.620384200481288,261.7638650657625L18.784436976184548,264.2795661904125L21.64229109617459,260.13786810043126L24.80209111277072,259.3181281021125L27.864077669902912,264.79148736406876L31.028130445606177,266.2168188954L34.09011700273837,268.37166599235L37.25416977844162,269.25566343043124L40.41822255414488,267.24190592548126L43.48020911127708,259.67909764423126L46.64426188698033,252.37174613994375L49.71050120321965,257.41365965625L52.87455397892291,258.696553424175L56.03860675462618,256.4257298901L58.89646087461622,259.61760739741874L62.056260891212354,255.2997105411375L65.11824744834453,257.20735980178125L68.28230022404779,260.83674536896876L71.34428678117997,260.0720851795688L74.50833955688324,259.41673770958124L77.67239233258651,257.3919651659625L80.7343788897187,257.29373405161874L83.89843166542197,254.6739553735125L86.96467098166127,260.23022611108127L90.12872375736453,265.6051613388L93.2927765330678,262.88650473148124L96.15063065305785,260.7892206904125L99.31043066965397,260.0214471336L102.37241722678615,265.9314921197625L105.53647000248942,266.5981047713062L108.59845655962161,269.15500708995L111.76250933532488,268.1309547093L114.92656211102813,264.8032847822062L117.98854866816032,260.4730926698812L121.15260144386359,262.150701116475L124.21884076010289,263.71549485429375L127.38289353580616,264.0375707668687L130.54694631150943,263.583317275275L133.50686665007055,261.72729571160625L136.66666666666666,261.3400570811625L139.72865322379886,265.42454750713125L142.8927059995021,266.8222518575063L145.9546925566343,268.6352240566875L149.11874533233757,269.1269689838812L152.28279810804082,264.01217001695625L155.34478466517302,260.48821784956874L158.50883744087628,259.45918519220623L161.5750767571156,264.25942911245625L164.73912953281885,265.3552238049375L167.9031823085221,262.1576340326437L170.76103642851214,262.77153364955626L173.9208364451083,261.1781165012437L176.98282300224048,263.89763402503127L180.14687577794373,265.002267059625L183.2088623350759,267.9330641973937L186.3729151107792,266.80763611400624L189.53696788648244,261.484361822625L192.59895444361464,256.8263255894625L195.7630072193179,254.37512373088126L198.82924653555722,260.2769086075125L201.99329931126047,262.8118811881312L205.15735208696375,260.2812853298625L208.01520620695376,258.67845392371873L211.17500622354993,261.25537079619374L214.23699278068207,265.19928109599374L217.40104555638536,267.9578500395375L220.46303211351753,269.88532161703125L223.6270848892208,269.21300530456875L226.79113766492407,263.3628972209625L229.85312422205627,258.5680805375437L233.01717699775952,258.4339135539375L236.0834163139988,261.8076967548L239.2474690897021,263.56034980861875L242.41152186540535,262.240837883175L245.2693759853954,261.15433885278753L248.42917600199155,260.7424164036L251.49116255912372,264.25602884345625L254.655215334827,268.25033866306876L257.7172018919592,272.8408560690375L260.8812546676624,273.210289900725L264.0453074433657,267.1853599147875L267.10729400049786,262.74146435930624L270.27134677620114,261.67893990706875L273.33758609244046,266.16798762583124L276.50163886814374,268.2092527478625L279.66569164384697,267.13032014064373L282.62561198240815,267.5835814060125L285.7854119990042,267.775156230075L288.84739855613645,272.8082264391L292.0114513318397,276.350909596125L295.0734378889719,274.89761664035626L298.23749066467514,276.9032190230625L301.4015434403784,272.23940589765L304.4635299975106,265.2853455692625L307.6275827732138,264.68296113440624L310.6938220894532,267.32456820367497L313.8578748651564,270.3795684845812L317.0219276408597,270.4642986402L319.8797817608497,272.050828927875L323.03958177744585,269.6499073516125L326.101568334578,272.1571202796375L329.2656211102813,274.8717666576562L332.3276076674135,278.34601611459374L335.49166044311676,278.0706729814875L338.65571321882,275.41025577369373L341.7176997759522,268.8377938784625L344.88175255165544,266.791340223375L347.94799186789476,271.3517710285875L351.11204464359804,273.6611682295875L354.27609741930127,273.39778569645L357.13395153929133,272.7384286621125L360.29375155588747,274.2756136689L363.35573811301964,273.0108857596125L366.5197908887229,277.30527806235L369.5817774458551,280.81502207458124L372.7458302215584,279.8568747067125L375.90988299726166,277.85019952310626L378.97186955439383,273.52600180711875L382.1359223300971,270.98761674523126L385.2021616463364,270.86068490985L388.36621442203966,273.29047349270627L391.53026719774294,275.6185257602813L394.38812131773295,274.3810086470813L397.5479213343291,272.26629394580624L400.6099078914613,275.60515334510626L403.77396066716454,277.9496613824812L406.8359472242968,280.06309299519376L410,279.81386671295627" data-legend="c" style="stroke: rgb(255, 127, 14); fill: none;"></path><path class="line" d="M3.164052775703261,198.17239400244375L6.22603933283545,194.5652925715875L9.39009210853871,190.004377935225L12.456331424778027,201.019044437025L15.620384200481288,198.39432056415L18.784436976184548,208.97744878636874L21.64229109617459,202.33315246880625L24.80209111277072,209.32994563933124L27.864077669902912,210.5850481183125L31.028130445606177,216.17757242758125L34.09011700273837,214.3934206840875L37.25416977844162,218.97827092003126L40.41822255414488,216.04306658521875L43.48020911127708,212.12644634979375L46.64426188698033,213.6399979028625L49.71050120321965,216.979155546075L52.87455397892291,215.83845016136252L56.03860675462618,204.00175308476247L58.89646087461622,211.90281256021876L62.056260891212354,206.03893623864377L65.11824744834453,212.05549855786876L68.28230022404779,204.2901462816375L71.34428678117997,216.5171780967L74.50833955688324,221.793596665725L77.67239233258651,215.43090699967502L80.7343788897187,213.28796900105624L83.89843166542197,208.7529388008375L86.96467098166127,214.9105518496125L90.12872375736453,217.64020885768124L93.2927765330678,221.86275691640623L96.15063065305785,222.11735730498748L99.31043066965397,218.16431322208126L102.37241722678615,227.21473302735L105.53647000248942,227.68272542345625L108.59845655962161,228.27005265403125L111.76250933532488,230.743762398375L114.92656211102813,227.42396971505624L117.98854866816032,219.4145638138875L121.15260144386359,222.63562093001252L124.21884076010289,221.064970664625L127.38289353580616,226.53113741638126L130.54694631150943,222.7556845553625L133.50686665007055,226.4522713583625L136.66666666666666,222.70904041963124L139.72865322379886,230.3494096309875L142.8927059995021,233.0586778434L145.9546925566343,230.1337106821125L149.11874533233757,231.43007059723124L152.28279810804082,230.12457616858126L155.34478466517302,225.8230473289875L158.50883744087628,220.16148673333123L161.5750767571156,220.89087452754376L164.73912953281885,227.81150200233748L167.9031823085221,225.63859751360624L170.76103642851214,222.27778923491252L173.9208364451083,221.60441993446875L176.98282300224048,222.85742501960624L180.14687577794373,226.46225345728124L183.2088623350759,230.12816893456875L186.3729151107792,230.97484553505L189.53696788648244,225.57784752176252L192.59895444361464,218.564747656275L195.7630072193179,213.2894029808625L198.82924653555722,220.3277324603625L201.99329931126047,223.45544554456876L205.15735208696375,223.17996528718123L208.01520620695376,221.67341320468125L211.17500622354993,221.55052773354373L214.23699278068207,227.516164036725L217.40104555638536,234.226852447575L220.46303211351753,233.35742976406874L223.6270848892208,232.2183098591625L226.79113766492407,229.60812336369375L229.85312422205627,225.4809912489375L233.01717699775952,225.70665716272498L236.0834163139988,226.2651275726625L239.2474690897021,230.16768182585625L242.41152186540535,227.4925953681L245.2693759853954,226.65781025131875L248.42917600199155,228.94832701588126L251.49116255912372,230.62714544788125L254.655215334827,234.56069801923124L257.7172018919592,235.2602919535875L260.8812546676624,238.83741360163125L264.0453074433657,237.23473511559376L267.10729400049786,228.63991887982502L270.27134677620114,224.87679879388128L273.33758609244046,228.138319833L276.50163886814374,236.376976106775L279.66569164384697,234.2107015394625L282.62561198240815,233.95376390120623L285.7854119990042,233.66598648133123L288.84739855613645,238.7489398918875L292.0114513318397,241.22971183865624L295.0734378889719,241.4135719722375L298.23749066467514,247.75728112359374L301.4015434403784,243.1375078426125L304.4635299975106,235.3670777172375L307.6275827732138,234.09136575005624L310.6938220894532,238.81205618780626L313.8578748651564,239.30746897415625L317.0219276408597,243.88001309825626L319.8797817608497,241.34043700299375L323.03958177744585,237.62073859636874L326.101568334578,246.0335611377L329.2656211102813,250.1244244312125L332.3276076674135,246.9561324977625L335.49166044311676,248.7606704290875L338.65571321882,247.5969624935625L341.7176997759522,241.712257873725L344.88175255165544,243.36109589694377L347.94799186789476,241.6141571619375L351.11204464359804,243.46213233911251L354.27609741930127,243.09739516905L357.13395153929133,242.8129312503375L360.29375155588747,245.2180901472375L363.35573811301964,246.6075118950375L366.5197908887229,249.45989416471875L369.5817774458551,253.2218130830625L372.7458302215584,253.07367433130625L375.90988299726166,254.26328531803125L378.97186955439383,252.53254988625L382.1359223300971,248.76906621215625L385.2021616463364,251.90406516926248L388.36621442203966,253.6443519043125L391.53026719774294,254.62460552825624L394.38812131773295,250.83651109083752L397.5479213343291,248.50953628153127L400.6099078914613,251.6025749762625L403.77396066716454,252.64793235217502L406.8359472242968,250.32166991956876L410,256.2434918431125" data-legend="c++" style="stroke: rgb(44, 160, 44); fill: none;"></path><path class="line" d="M3.164052775703261,226.9585336107375L6.22603933283545,233.7304606446375L9.39009210853871,232.39075061690625L12.456331424778027,230.93259271635L15.620384200481288,224.8380026682L18.784436976184548,232.10965742814375L21.64229109617459,229.24702806690001L24.80209111277072,231.9309855826125L27.864077669902912,226.502229872475L31.028130445606177,230.0253318110625L34.09011700273837,232.13329806106876L37.25416977844162,234.06148867314374L40.41822255414488,233.10934636531874L43.48020911127708,226.0176475485L46.64426188698033,223.32293496213748L49.71050120321965,220.432102060425L52.87455397892291,217.98135532449373L56.03860675462618,221.32189333155L58.89646087461622,225.15892891543126L62.056260891212354,231.5173474310625L65.11824744834453,227.00933041678127L68.28230022404779,225.32602225790623L71.34428678117997,219.40017194630624L74.50833955688324,226.1745761106375L77.67239233258651,230.55783766021875L80.7343788897187,221.17356582554999L83.89843166542197,229.22538258500623L86.96467098166127,232.75145109590625L90.12872375736453,231.632921377875L93.2927765330678,231.74010005426248L96.15063065305785,230.16392955193123L99.31043066965397,234.4453489464375L102.37241722678615,234.06576995450627L105.53647000248942,234.31023544340624L108.59845655962161,231.59811397464375L111.76250933532488,232.90911122908125L114.92656211102813,235.34735740348125L117.98854866816032,232.90390520431873L121.15260144386359,233.3000558695125L124.21884076010289,234.46426853900624L127.38289353580616,232.0799022130875L130.54694631150943,232.02921765103125L133.50686665007055,229.32446701715625L136.66666666666666,228.53768127121876L139.72865322379886,228.83647333160627L142.8927059995021,224.3284435130625L145.9546925566343,224.326881886575L149.11874533233757,222.10191015286875L152.28279810804082,225.228755449275L155.34478466517302,223.017773414025L158.50883744087628,218.70272775245627L161.5750767571156,219.9477783613125L164.73912953281885,221.50273102854374L167.9031823085221,217.55293317795L170.76103642851214,217.5087646937625L173.9208364451083,213.09476767160623L176.98282300224048,211.89316901788123L180.14687577794373,209.78991914154375L183.2088623350759,208.40438145785623L186.3729151107792,212.32683201605624L189.53696788648244,209.69720609143127L192.59895444361464,203.22966960401249L195.7630072193179,198.908340168L198.82924653555722,203.97050046121876L201.99329931126047,202.20792079209374L205.15735208696375,200.97689527237497L208.01520620695376,196.84451468092502L211.17500622354993,196.02804336583125L214.23699278068207,201.28846023421875L217.40104555638536,197.0147607580875L220.46303211351753,194.62499578078126L223.6270848892208,195.2693433327375L226.79113766492407,200.6835022698375L229.85312422205627,195.6842111339625L233.01717699775952,191.8675276134L236.0834163139988,190.51780621291874L239.2474690897021,190.0716529840875L242.41152186540535,185.75232844449374L245.2693759853954,184.62937483198124L248.42917600199155,186.0480831160125L251.49116255912372,186.02814179926872L254.655215334827,181.42126483985624L257.7172018919592,180.99968722921875L260.8812546676624,183.16537103645624L264.0453074433657,183.52652226112502L267.10729400049786,173.3774617126875L270.27134677620114,169.6261209059625L273.33758609244046,172.46759628076876L276.50163886814374,171.1758354328875L279.66569164384697,167.05308155330624L282.62561198240815,167.9915323423875L285.7854119990042,168.66152276495623L288.84739855613645,168.90106540867498L292.0114513318397,167.40164430135L295.0734378889719,162.67707635158123L298.23749066467514,165.4762958823L301.4015434403784,163.63776291024374L304.4635299975106,154.01132778894376L307.6275827732138,146.5576382111625L310.6938220894532,147.70457998698748L313.8578748651564,146.8490265285375L317.0219276408597,140.05265153475L319.8797817608497,138.91318347236248L323.03958177744585,134.0249108716875L326.101568334578,135.7138619041875L329.2656211102813,129.54064531419377L332.3276076674135,121.60642345569374L335.49166044311676,124.07617481069997L338.65571321882,119.27178048524999L341.7176997759522,110.89753068166877L344.88175255165544,109.42136189366249L347.94799186789476,105.00010375094999L351.11204464359804,107.90776936693126L354.27609741930127,97.47554272792499L357.13395153929133,103.29526199641873L360.29375155588747,101.8583497990125L363.35573811301964,100.61172321815624L366.5197908887229,93.20275745970002L369.5817774458551,86.60856960594376L372.7458302215584,87.951665884575L375.90988299726166,97.36696432918126L378.97186955439383,92.94353302344376L382.1359223300971,79.90156008140625L385.2021616463364,81.31920278394378L388.36621442203966,91.87595273835001L391.53026719774294,80.343866447175L394.38812131773295,72.38976314518126L397.5479213343291,64.04838655518748L400.6099078914613,69.7491179264625L403.77396066716454,63.12142938217502L406.8359472242968,58.409108857293745L410,60.18526553281873" data-legend="python" style="stroke: rgb(214, 39, 40); fill: none;"></path><path class="line" d="M3.164052775703261,78.05079273980627L6.22603933283545,41.92488587634381L9.39009210853871,41.65207354931255L12.456331424778027,50.35499498831251L15.620384200481288,16.98113207548124L18.784436976184548,20.584437941137537L21.64229109617459,7.554382676474972L24.80209111277072,5.477428503900001L27.864077669902912,38.796846882093746L31.028130445606177,40.0367489653313L34.09011700273837,42.7717780336875L37.25416977844162,42.31391585761878L40.41822255414488,50.419975565062515L43.48020911127708,54.068509115137516L46.64426188698033,69.91965292160626L49.71050120321965,75.00800683250625L52.87455397892291,84.91114646827498L56.03860675462618,84.86784438001877L58.89646087461622,81.79782315547502L62.056260891212354,81.92590656911253L65.11824744834453,84.14942217232499L68.28230022404779,91.63660467885L71.34428678117997,92.57944249719381L74.50833955688324,93.67954911435004L77.67239233258651,102.54888268156876L80.7343788897187,100.70409224081251L83.89843166542197,101.90138610435L86.96467098166127,107.29662999221247L90.12872375736453,111.6618459111375L93.2927765330678,113.37020071123126L96.15063065305785,113.46075700963124L99.31043066965397,117.464541782775L102.37241722678615,111.88583347438126L105.53647000248942,114.65630098085623L108.59845655962161,120.41483633625L111.76250933532488,123.43675784416877L114.92656211102813,128.5100118361875L117.98854866816032,129.10425360208126L121.15260144386359,129.11144592106874L124.21884076010289,131.20130806965L127.38289353580616,130.91546577459377L130.54694631150943,136.67441468351254L133.50686665007055,136.73101376424376L136.66666666666666,137.781548904675L139.72865322379886,138.03253507051875L142.8927059995021,137.21184987616877L145.9546925566343,136.65825122720625L149.11874533233757,140.90451355764375L152.28279810804082,139.48803433035002L155.34478466517302,140.08686330301873L158.50883744087628,144.30601972751248L161.5750767571156,147.56514760380003L164.73912953281885,147.28259492068122L167.9031823085221,146.32381507381876L170.76103642851214,145.67264728123126L173.9208364451083,147.44732223798752L176.98282300224048,147.75732147453752L180.14687577794373,147.96531398776878L183.2088623350759,148.85452543618126L186.3729151107792,146.86625358658125L189.53696788648244,143.67846557915624L192.59895444361464,145.01523697145623L195.7630072193179,144.38544642101252L198.82924653555722,145.1997684892125L201.99329931126047,147.32673267328124L205.15735208696375,148.80813999778124L208.01520620695376,153.391694084475L211.17500622354993,151.87741013679377L214.23699278068207,151.41873332731876L217.40104555638536,155.0003676403125L220.46303211351753,154.4369311086L223.6270848892208,156.04536308761877L226.79113766492407,160.06067902865624L229.85312422205627,162.9218234085375L233.01717699775952,165.65427558283125L236.0834163139988,165.1526246820375L239.2474690897021,166.3390471146375L242.41152186540535,167.64220461764998L245.2693759853954,168.06313358955L248.42917600199155,169.50763374899998L251.49116255912372,163.81466029059374L254.655215334827,163.73145353116874L257.7172018919592,163.39671641945625L260.8812546676624,162.11483317035L264.0453074433657,162.82317928948126L267.10729400049786,170.3011613958375L270.27134677620114,168.62405630128126L273.33758609244046,166.721714707725L276.50163886814374,171.04086491874375L279.66569164384697,172.0269802375875L282.62561198240815,172.1824255035375L285.7854119990042,167.91544445863127L288.84739855613645,165.04492208206875L292.0114513318397,165.71607198315002L295.0734378889719,171.3143410544625L298.23749066467514,167.18832142640625L301.4015434403784,177.06179673163126L304.4635299975106,176.08976197305L307.6275827732138,173.84465239108124L310.6938220894532,174.93798257311875L313.8578748651564,174.33465216898125L317.0219276408597,175.3296106716375L319.8797817608497,177.6170757641625L323.03958177744585,182.1584259348L326.101568334578,177.8978979789L329.2656211102813,179.52202397075624L332.3276076674135,181.60600380483748L335.49166044311676,182.64300501971252L338.65571321882,184.0686076750875L341.7176997759522,185.67573562029375L344.88175255165544,189.613298645025L347.94799186789476,187.27460107764375L351.11204464359804,188.45422362823126L354.27609741930127,193.24597967154375L357.13395153929133,192.00181671024376L360.29375155588747,191.6556207300375L363.35573811301964,186.9521074638375L366.5197908887229,191.46906829704375L369.5817774458551,187.590240451725L372.7458302215584,186.1332707649L375.90988299726166,193.08330089056875L378.97186955439383,193.6753611513375L382.1359223300971,196.45111918884373L385.2021616463364,195.51615390699374L388.36621442203966,192.34056781745625L391.53026719774294,194.2726564960875L394.38812131773295,198.1483967989875L397.5479213343291,190.460780363325L400.6099078914613,190.673768489625L403.77396066716454,197.20877000491873L406.8359472242968,197.03671634383124L410,196.42268309615625" data-legend="c#" style="stroke: rgb(148, 103, 189); fill: none;"></path><path class="line" d="M3.164052775703261,271.3483750627875L6.22603933283545,268.745677133775L9.39009210853871,266.2699992040125L12.456331424778027,266.7975275643187L15.620384200481288,270.81665713741876L18.784436976184548,269.55155792735627L21.64229109617459,263.74488235584374L24.80209111277072,266.5859134956375L27.864077669902912,268.4590407636375L31.028130445606177,270.96653346654375L34.09011700273837,273.85702281286876L37.25416977844162,268.3310217290813L40.41822255414488,272.510690287125L43.48020911127708,277.7844834762375L46.64426188698033,278.07822371353126L49.71050120321965,275.0787338529L52.87455397892291,277.5205046611875L56.03860675462618,274.7151237273375L58.89646087461622,275.6910999807375L62.056260891212354,277.1598858245625L65.11824744834453,280.1099517993L68.28230022404779,281.466784509675L71.34428678117997,278.920044970575L74.50833955688324,281.5880458463625L77.67239233258651,281.7922280644125L80.7343788897187,281.24586523014375L83.89843166542197,280.6904559288187L86.96467098166127,283.21493545873125L90.12872375736453,280.34916043725L93.2927765330678,281.66927852450624L96.15063065305785,283.2936063510375L99.31043066965397,280.3923103416L102.37241722678615,282.5830587111L105.53647000248942,282.93085738455L108.59845655962161,283.3968784396312L111.76250933532488,283.81227124138127L114.92656211102813,284.3366363752125L117.98854866816032,283.4105090150438L121.15260144386359,285.025141276575L124.21884076010289,284.3103779936625L127.38289353580616,283.7879567679L130.54694631150943,283.62077271414375L133.50686665007055,285.192855390075L136.66666666666666,285.47901882136875L139.72865322379886,285.06495909984375L142.8927059995021,286.88321585064375L145.9546925566343,286.3717283369813L149.11874533233757,285.25249634295L152.28279810804082,284.06374878905626L155.34478466517302,284.8840820743125L158.50883744087628,283.42088706076873L161.5750767571156,284.646949176375L164.73912953281885,283.9488708369375L167.9031823085221,283.780108780125L170.76103642851214,284.6940090740438L173.9208364451083,282.79546616769375L176.98282300224048,283.72756274055L180.14687577794373,283.1623592533875L183.2088623350759,282.6802552086375L186.3729151107792,282.4191589360875L189.53696788648244,282.07498012096875L192.59895444361464,281.305616298975L195.7630072193179,282.74484572529377L198.82924653555722,282.376693374825L201.99329931126047,282.2574257425875L205.15735208696375,282.8625340360875L208.01520620695376,282.23937899878126L211.17500622354993,282.23604361164377L214.23699278068207,284.44352760320623L217.40104555638536,284.4327310159875L220.46303211351753,284.01970656736876L223.6270848892208,284.7837022132875L226.79113766492407,285.1379914971375L229.85312422205627,284.6849096031L233.01717699775952,284.9728658025375L236.0834163139988,284.23408232484377L239.2474690897021,284.93436574621876L242.41152186540535,286.3951040217L245.2693759853954,286.35953883380625L248.42917600199155,286.62708133164375L251.49116255912372,286.408790129325L254.655215334827,286.03014901175624L257.7172018919592,286.7328783629437L260.8812546676624,287.18527788369374L264.0453074433657,286.7895973892063L267.10729400049786,287.53341904389373L270.27134677620114,288.006868889175L273.33758609244046,287.3961307429875L276.50163886814374,287.0013012542062L279.66569164384697,287.7350450114625L282.62561198240815,287.78200635200625L285.7854119990042,288.52187221018124L288.84739855613645,287.82532068271877L292.0114513318397,288.6096173648813L295.0734378889719,288.5830483828875L298.23749066467514,288.53461681065L301.4015434403784,289.3465284415125L304.4635299975106,289.278032692875L307.6275827732138,289.3327688156625L310.6938220894532,289.732239759375L313.8578748651564,289.76360582945625L317.0219276408597,289.95010599245626L319.8797817608497,290.0783250715125L323.03958177744585,289.9255433589L326.101568334578,290.3718047607L329.2656211102813,290.816291982675L332.3276076674135,290.82013764549373L335.49166044311676,291.630271404675L338.65571321882,291.22542965139377L341.7176997759522,291.62723643354377L344.88175255165544,291.28202914771873L347.94799186789476,291.55726706184373L351.11204464359804,292.50320114488125L354.27609741930127,291.9996121024125L357.13395153929133,292.5977791881937L360.29375155588747,293.240815871475L363.35573811301964,292.1826188302125L366.5197908887229,292.708326536475L369.5817774458551,292.94182293609373L372.7458302215584,293.7822618489L375.90988299726166,292.59772373353127L378.97186955439383,293.21310377863125L382.1359223300971,293.1735568812375L385.2021616463364,293.1291521670375L388.36621442203966,292.65186868126875L391.53026719774294,291.94341596191873L394.38812131773295,292.8198345775875L397.5479213343291,292.43435411840625L400.6099078914613,293.1300040711125L403.77396066716454,292.409481290925L406.8359472242968,293.2098173490375L410,293.2640576188875" data-legend="vb.net" style="stroke: rgb(140, 86, 75); fill: none;"></path><path class="line" d="M3.164052775703261,213.9106105172625L6.22603933283545,205.97765942731877L9.39009210853871,213.58552893418124L12.456331424778027,201.9587370531375L15.620384200481288,205.7794930436625L18.784436976184548,197.89550697195L21.64229109617459,206.95752971934377L24.80209111277072,207.02552588041874L27.864077669902912,194.88791956811252L31.028130445606177,195.907663764825L34.09011700273837,197.82064050294375L37.25416977844162,192.62598243181876L40.41822255414488,199.89309712890002L43.48020911127708,193.76092566388124L46.64426188698033,190.48942249719374L49.71050120321965,184.70161204228123L52.87455397892291,190.039552707075L56.03860675462618,189.0836760838875L58.89646087461622,192.21729917165626L62.056260891212354,186.77936801480627L65.11824744834453,183.23670609187502L68.28230022404779,182.848433469825L71.34428678117997,180.0922558032L74.50833955688324,181.624751349825L77.67239233258651,176.88958264871252L80.7343788897187,178.4082317361375L83.89843166542197,177.05716057753125L86.96467098166127,165.90899246296874L90.12872375736453,172.023026933625L93.2927765330678,173.04110662408127L96.15063065305785,173.98659028515L99.31043066965397,164.7225961990125L102.37241722678615,163.22194123914375L105.53647000248942,154.36471571570627L108.59845655962161,148.73124634348127L111.76250933532488,143.93772177363752L114.92656211102813,148.997104539825L117.98854866816032,151.0820998346625L121.15260144386359,150.26858576885627L124.21884076010289,149.16322015966875L127.38289353580616,144.87583633558125L130.54694631150943,148.64269197418125L133.50686665007055,149.73955041309375L136.66666666666666,144.50690373343127L139.72865322379886,139.07354628568126L142.8927059995021,138.38350161935625L145.9546925566343,136.65825122720625L149.11874533233757,134.63715575908125L152.28279810804082,141.06321143135622L155.34478466517302,144.01925620166247L158.50883744087628,143.024848796475L161.5750767571156,136.87210136621252L164.73912953281885,135.19969458103125L167.9031823085221,132.1192696192875L170.76103642851214,134.08305836255622L173.9208364451083,131.43043513633125L176.98282300224048,130.20553397536878L180.14687577794373,126.5345159827875L183.2088623350759,120.83168652251248L186.3729151107792,113.81691281311876L189.53696788648244,98.521421170575L192.59895444361464,98.40106523482501L195.7630072193179,102.55734042253124L198.82924653555722,94.94112752990625L201.99329931126047,89.75247524752498L205.15735208696375,88.06069967039997L208.01520620695376,94.72319210368124L211.17500622354993,92.49778510670626L214.23699278068207,88.52522946151876L217.40104555638536,87.88303523833125L220.46303211351753,85.9906445842125L223.6270848892208,87.13188220231874L226.79113766492407,94.3863641822625L229.85312422205627,93.7928606063438L233.01717699775952,96.66198457005001L236.0834163139988,93.75433592848125L239.2474690897021,89.48738474131875L242.41152186540535,90.65187524535L245.2693759853954,95.8576489380375L248.42917600199155,91.95262429920004L251.49116255912372,74.65713314191873L254.655215334827,72.84242301416248L257.7172018919592,68.18108403281249L260.8812546676624,69.57327078948748L264.0453074433657,72.44288878743751L267.10729400049786,78.85939525651875L270.27134677620114,74.60930028466876L273.33758609244046,68.98721296033128L276.50163886814374,65.18245244885628L279.66569164384697,74.46665423746876L282.62561198240815,74.13979351063125L285.7854119990042,74.74174212474375L288.84739855613645,70.38057881904376L292.0114513318397,72.56010853044376L295.0734378889719,62.661598146037505L298.23749066467514,63.73009900004999L301.4015434403784,74.41906146838124L304.4635299975106,79.075853168925L307.6275827732138,78.18402319306875L310.6938220894532,68.620732425825L313.8578748651564,70.57241261529381L317.0219276408597,70.92058321700623L319.8797817608497,77.31455827955625L323.03958177744585,74.70811532332502L326.101568334578,72.60468302471247L329.2656211102813,70.62948605092501L332.3276076674135,72.30793979409378L335.49166044311676,71.68826749100626L338.65571321882,77.831137233975L341.7176997759522,78.37128493273127L344.88175255165544,82.29630533660628L347.94799186789476,78.49173796663126L351.11204464359804,75.74332467142497L354.27609741930127,86.39334131043748L357.13395153929133,89.92104297802501L360.29375155588747,90.18656277292499L363.35573811301964,95.37385254963749L366.5197908887229,88.33348558304999L369.5817774458551,87.73361460774376L372.7458302215584,85.7813233224L375.90988299726166,94.19618959561873L378.97186955439383,98.9547839623875L382.1359223300971,100.05478546708125L385.2021616463364,100.27582252453124L388.36621442203966,101.93993587085626L391.53026719774294,101.36007321871875L394.38812131773295,101.84556098610003L397.5479213343291,105.74863167793126L400.6099078914613,104.47016216583751L403.77396066716454,99.12318867997502L406.8359472242968,101.67801419240627L410,96.06690385284375" data-legend="javascript" style="stroke: rgb(227, 119, 194); fill: none;"></path><path class="line" d="M3.164052775703261,296.3681038812L6.22603933283545,298.05471019505626L9.39009210853871,297.4627875507563L12.456331424778027,297.1809221517L15.620384200481288,297.37945492663124L18.784436976184548,296.01910828025626L21.64229109617459,297.78029891975626L24.80209111277072,295.6570550697375L27.864077669902912,296.5524998044125L31.028130445606177,296.72202797203124L34.09011700273837,298.1326444866375L37.25416977844162,297.2260748959875L40.41822255414488,296.449297495425L43.48020911127708,296.1500041621687L46.64426188698033,295.9695388890375L49.71050120321965,296.8973524074L52.87455397892291,295.75620742201875L56.03860675462618,297.09223922865L58.89646087461622,295.5933346176187L62.056260891212354,295.32644528424373L65.11824744834453,296.0800634933062L68.28230022404779,296.9224039970438L71.34428678117997,296.9620064810625L74.50833955688324,297.48389694043124L77.67239233258651,296.39541570819375L80.7343788897187,296.36730932805L83.89843166542197,295.56475458309376L86.96467098166127,296.6700597765L90.12872375736453,296.853987453525L93.2927765330678,296.7000180821062L96.15063065305785,296.41342160818124L99.31043066965397,296.90816869659375L102.37241722678615,297.050507262975L105.53647000248942,297.35654871L108.59845655962161,297.378454490475L111.76250933532488,297.24092648990626L114.92656211102813,297.157117843275L117.98854866816032,296.08790646406874L121.15260144386359,296.37649634101876L124.21884076010289,295.88823699144376L127.38289353580616,297.28190941843127L130.54694631150943,296.4923162154375L133.50686665007055,296.37489868306875L136.66666666666666,296.00817648875625L139.72865322379886,296.82144575638125L142.8927059995021,297.0851590779375L145.9546925566343,297.35335014080624L149.11874533233757,297.49570692616874L152.28279810804082,296.80707344394375L155.34478466517302,296.06760710135626L158.50883744087628,296.14380234620626L161.5750767571156,296.310829702725L164.73912953281885,296.4238416890625L167.9031823085221,296.0785742035875L170.76103642851214,296.0580360211875L173.9208364451083,296.38258060018126L176.98282300224048,296.62206647235L180.14687577794373,296.4459117358125L183.2088623350759,296.82400767885L186.3729151107792,297.64561953211876L189.53696788648244,296.69059179298125L192.59895444361464,296.13324636804373L195.7630072193179,295.5456885093L198.82924653555722,295.96438712945627L201.99329931126047,296.6435643564375L205.15735208696375,296.2580213691L208.01520620695376,295.9083126301125L211.17500622354993,296.50482155386874L214.23699278068207,296.460584618175L217.40104555638536,296.8635686844L220.46303211351753,297.711073481925L223.6270848892208,297.9079019572125L226.79113766492407,296.7686390603625L229.85312422205627,295.757232907725L233.01717699775952,295.631124661575L236.0834163139988,296.03744315116876L239.2474690897021,296.25334039531873L242.41152186540535,295.9742889769125L245.2693759853954,296.14508706174377L248.42917600199155,295.605051155625L251.49116255912372,296.2252261491L254.655215334827,297.3300284797125L257.7172018919592,297.49078351648126L260.8812546676624,297.77270391673125L264.0453074433657,297.2522362569562L267.10729400049786,295.63266217314373L270.27134677620114,295.75968451490627L273.33758609244046,296.14033761508125L276.50163886814374,297.4147955369813L279.66569164384697,296.5142758216688L282.62561198240815,295.91177905438127L285.7854119990042,296.0591761255125L288.84739855613645,296.7799215520125L292.0114513318397,297.06812572531874L295.0734378889719,297.880621854675L298.23749066467514,297.354142340925L301.4015434403784,296.305916982825L304.4635299975106,295.74132492114376L307.6275827732138,295.522131006375L310.6938220894532,296.31383918881875L313.8578748651564,296.7337470112875L317.0219276408597,296.74697964601876L319.8797817608497,296.48997349228125L323.03958177744585,296.57848642378127L326.101568334578,296.47033598896877L329.2656211102813,297.42898496750627L332.3276076674135,297.67093777978124L335.49166044311676,297.6922095232875L338.65571321882,297.34668164525624L341.7176997759522,296.284932722175L344.88175255165544,295.6354332865125L347.94799186789476,296.77075191766875L351.11204464359804,297.02246450495625L354.27609741930127,296.5237143495938L357.13395153929133,296.4954087306937L360.29375155588747,296.28361010115L363.35573811301964,296.564407410975L366.5197908887229,297.4552548986438L369.5817774458551,297.8091228912375L372.7458302215584,297.8531206006688L375.90988299726166,296.920470582525L378.97186955439383,296.40753763921873L382.1359223300971,296.33676539645626L385.2021616463364,296.82408652325626L388.36621442203966,297.338903263125L391.53026719774294,297.30332871755627L394.38812131773295,296.97889252914376L397.5479213343291,296.37982270576873L400.6099078914613,297.2117146152938L403.77396066716454,297.4580038591125L406.8359472242968,297.86352508490626L410,297.863155154475" data-legend="assembly" style="stroke: rgb(127, 127, 127); fill: none;"></path><path class="line" d="M3.164052775703261,235.02941387475L6.22603933283545,219.59468806198123L9.39009210853871,224.7791132691375L12.456331424778027,224.824590711675L15.620384200481288,224.12330855728126L18.784436976184548,217.26200723017502L21.64229109617459,216.39125931043125L24.80209111277072,214.20467974475625L27.864077669902912,213.2256865660125L31.028130445606177,194.3021264449875L34.09011700273837,181.24786032181873L37.25416977844162,173.55524734166252L40.41822255414488,169.99847281614376L43.48020911127708,176.85216015984378L46.64426188698033,167.68291084490625L49.71050120321965,158.3291075050875L52.87455397892291,155.29087486554374L56.03860675462618,166.41157035939375L58.89646087461622,164.26025813910002L62.056260891212354,162.243205757025L65.11824744834453,155.03494066861876L68.28230022404779,161.30526144911252L71.34428678117997,156.904305270825L74.50833955688324,147.2873448896625L77.67239233258651,155.0772264213L80.7343788897187,166.24019468859376L83.89843166542197,161.29040400399376L86.96467098166127,153.6992116434375L90.12872375736453,148.28706660155623L93.2927765330678,147.4097402206125L96.15063065305785,148.26729238728748L99.31043066965397,149.1460283665875L102.37241722678615,147.839776585275L105.53647000248942,147.28404261748128L108.59845655962161,137.166698067375L111.76250933532488,142.767734905425L114.92656211102813,150.66615148344374L117.98854866816032,149.80882410834374L121.15260144386359,149.58166564393122L124.21884076010289,148.297585842075L127.38289353580616,148.71976325270623L130.54694631150943,148.71796415840626L133.50686665007055,146.29570416200625L136.66666666666666,147.6887920395L139.72865322379886,146.69374838066253L142.8927059995021,147.47094684703126L145.9546925566343,143.74231900953748L149.11874533233757,141.14301765991877L152.28279810804082,143.09249364253122L155.34478466517302,151.13262934318126L158.50883744087628,149.5321823372625L161.5750767571156,145.26288343333127L164.73912953281885,145.4529325290375L167.9031823085221,144.611985237L170.76103642851214,145.7156114662875L173.9208364451083,151.66401292393124L176.98282300224048,150.67513781071875L180.14687577794373,147.78819995467498L183.2088623350759,146.31373157925L186.3729151107792,140.56223485715626L189.53696788648244,137.08223898219373L192.59895444361464,142.40695433780627L195.7630072193179,139.97355694449374L198.82924653555722,134.79986977518752L201.99329931126047,131.13861386139374L205.15735208696375,132.96444324134998L208.01520620695376,132.56455573569374L211.17500622354993,127.48797812249998L214.23699278068207,140.72630781751874L217.40104555638536,147.6820279039125L220.46303211351753,146.84233620991873L223.6270848892208,146.54518017195L226.79113766492407,147.292862633025L229.85312422205627,150.30175598606252L233.01717699775952,151.39085224141874L236.0834163139988,148.6520080166625L239.2474690897021,144.05093651445L242.41152186540535,147.614013488925L245.2693759853954,150.58752826936876L248.42917600199155,149.80955221674375L251.49116255912372,150.72945227660625L254.655215334827,154.54155155679373L257.7172018919592,150.3122580513L260.8812546676624,150.58469112065626L264.0453074433657,155.340807250725L267.10729400049786,157.87492536191252L270.27134677620114,157.67518198901251L273.33758609244046,148.044873845025L276.50163886814374,146.78770176361874L279.66569164384697,149.16502423695002L282.62561198240815,157.13627900956877L285.7854119990042,159.7181481954L288.84739855613645,154.728744831975L292.0114513318397,158.86141122245627L295.0734378889719,160.8878525907L298.23749066467514,164.93674843809376L301.4015434403784,164.9790668629125L304.4635299975106,166.58302265559377L307.6275827732138,169.89422469718127L310.6938220894532,165.042326893875L313.8578748651564,163.71399294091876L317.0219276408597,163.58857694364377L319.8797817608497,166.78747397900625L323.03958177744585,167.09954210855625L326.101568334578,166.530154860225L329.2656211102813,173.7769163055375L332.3276076674135,174.765694941825L335.49166044311676,174.60296077820627L338.65571321882,173.95574078788127L341.7176997759522,178.25669081769377L344.88175255165544,180.19208558570625L347.94799186789476,179.77859548891874L351.11204464359804,178.980247053075L354.27609741930127,185.60308214225626L357.13395153929133,190.84453735029376L360.29375155588747,194.26870737766876L363.35573811301964,191.70561589850627L366.5197908887229,194.88245235129375L369.5817774458551,196.67349851889372L372.7458302215584,197.207883622725L375.90988299726166,200.7707187697875L378.97186955439383,204.95283532370624L382.1359223300971,209.7887715880875L385.2021616463364,211.16092613098124L388.36621442203966,208.83279697695L391.53026719774294,206.08452244404376L394.38812131773295,209.0042429776125L397.5479213343291,211.00659816661874L400.6099078914613,212.7150054281625L403.77396066716454,216.42153153495002L406.8359472242968,216.9207403062L410,213.74522735161875" data-legend="php" style="stroke: rgb(188, 189, 34); fill: none;"></path><path class="line" d="M3.164052775703261,282.3785780902688L6.22603933283545,283.400193664425L9.39009210853871,285.52296426013123L12.456331424778027,279.0135315736875L15.620384200481288,282.4899942824625L18.784436976184548,282.3549664314L21.64229109617459,287.14423124353124L24.80209111277072,285.73032380053127L27.864077669902912,285.54983960566875L31.028130445606177,283.47634508349375L34.09011700273837,284.8860913137L37.25416977844162,285.4368932038875L40.41822255414488,285.6826511912063L43.48020911127708,285.328394239575L46.64426188698033,284.1239153799938L49.71050120321965,286.8888117860625L52.87455397892291,287.31064001435624L56.03860675462618,285.37691322230626L58.89646087461622,285.8047582354125L62.056260891212354,286.167785639625L65.11824744834453,289.54683598213126L68.28230022404779,286.0662686459625L71.34428678117997,286.3910290324875L74.50833955688324,283.77853556881877L77.67239233258651,285.82813013475L80.7343788897187,285.23296474815L83.89843166542197,287.397412412925L86.96467098166127,286.40951225851876L90.12872375736453,288.66026820931876L93.2927765330678,289.03773130010626L96.15063065305785,288.75709882355625L99.31043066965397,289.1394533329312L102.37241722678615,289.13541282943123L105.53647000248942,289.23737689070623L108.59845655962161,287.7103433914875L111.76250933532488,289.1907183370125L114.92656211102813,290.8294123976625L117.98854866816032,289.6846212896625L121.15260144386359,289.49012208860626L124.21884076010289,290.20751178225L127.38289353580616,290.81639217705L130.54694631150943,290.71141246749374L133.50686665007055,291.50889729995623L136.66666666666666,291.2787334156125L139.72865322379886,290.93626235334375L142.8927059995021,289.3551152600625L145.9546925566343,291.20416862715L149.11874533233757,289.8105747418875L152.28279810804082,290.47798347058125L155.34478466517302,291.29613673708127L158.50883744087628,291.88168914988125L161.5750767571156,292.2471947512125L164.73912953281885,292.0397805038813L167.9031823085221,290.76097513599376L170.76103642851214,290.7089949817875L173.9208364451083,290.673159619725L176.98282300224048,289.65297437709376L180.14687577794373,289.95173052219377L183.2088623350759,289.56157190446874L186.3729151107792,290.59347990635627L189.53696788648244,292.025794559175L192.59895444361464,291.4748738822625L195.7630072193179,291.0913770185812L198.82924653555722,291.1374776176125L201.99329931126047,291.831683168325L205.15735208696375,291.8791102052625L208.01520620695376,291.546843675375L211.17500622354993,291.895795031475L214.23699278068207,291.31041732605627L217.40104555638536,291.90042462455625L220.46303211351753,292.046771453325L223.6270848892208,291.9860069508L226.79113766492407,292.14115004925L229.85312422205627,292.86738899536874L233.01717699775952,292.52012602726876L236.0834163139988,293.0263817158875L239.2474690897021,293.161217709525L242.41152186540535,293.59900795775627L245.2693759853954,293.40711043635L248.42917600199155,294.1796623412437L251.49116255912372,294.54529998489375L254.655215334827,294.0700632526688L257.7172018919592,294.31821095109376L260.8812546676624,294.12615405016874L264.0453074433657,294.8532271428375L267.10729400049786,294.78541880720627L270.27134677620114,294.97912892810626L273.33758609244046,294.66843246826875L276.50163886814374,295.18259088015L279.66569164384697,294.8563095935813L282.62561198240815,295.4917563544875L285.7854119990042,295.1504910088125L288.84739855613645,295.0208046220875L292.0114513318397,295.3621222275L295.0734378889719,295.31393776910625L298.23749066467514,295.092193440225L301.4015434403784,294.76671572566875L304.4635299975106,295.4939776312125L307.6275827732138,295.81276192665L310.6938220894532,295.8952215572625L313.8578748651564,296.2854377775375L317.0219276408597,295.48670354859377L319.8797817608497,295.9751696044875L323.03958177744585,296.01879438815627L326.101568334578,296.32874488250627L329.2656211102813,296.4873374864625L332.3276076674135,296.4329677708312L335.49166044311676,296.0969626499625L338.65571321882,296.2876817755875L341.7176997759522,296.1740351914875L344.88175255165544,296.8744790798625L347.94799186789476,296.77075191766875L351.11204464359804,297.01069558996875L354.27609741930127,296.99215000460623L357.13395153929133,296.70284559710626L360.29375155588747,296.92236461503126L363.35573811301964,297.105090834825L366.5197908887229,296.8680060291L369.5817774458551,296.8972443108375L372.7458302215584,297.2078836227187L375.90988299726166,297.44513114994373L378.97186955439383,296.9178305881875L382.1359223300971,297.3042071760375L385.2021616463364,297.058881683025L388.36621442203966,296.933715694125L391.53026719774294,297.00246043396874L394.38812131773295,297.51262151566874L397.5479213343291,297.68098787818127L400.6099078914613,297.36014045326874L403.77396066716454,296.91413491734374L406.8359472242968,297.3135414433875L410,297.602828878875" data-legend="perl" style="stroke: rgb(23, 190, 207); fill: none;"></path><path class="line" d="M3.164052775703261,260.856230719575L6.22603933283545,267.5785032508125L9.39009210853871,276.1203534187875L12.456331424778027,274.78491480121875L15.620384200481288,275.10482180295L18.784436976184548,269.12119125495L21.64229109617459,269.4791101465125L24.80209111277072,268.2699125502375L27.864077669902912,270.51287066741247L31.028130445606177,271.033430854875L34.09011700273837,270.76421524385626L37.25416977844162,271.97179842811875L40.41822255414488,272.68249847281874L43.48020911127708,274.35070340465626L46.64426188698033,267.80546307705L49.71050120321965,271.32553111989375L52.87455397892291,271.13380692005626L56.03860675462618,270.9645337468875L58.89646087461622,274.82421498748124L62.056260891212354,271.6194620889375L65.11824744834453,271.83453028515L68.28230022404779,271.1517649393125L71.34428678117997,271.75906024734377L74.50833955688324,270.546793596675L77.67239233258651,271.070900427225L80.7343788897187,272.6809847840625L83.89843166542197,274.8759573639563L86.96467098166127,272.3046435069L90.12872375736453,271.6624093760625L93.2927765330678,271.6337170755375L96.15063065305785,269.52337532336253L99.31043066965397,271.077679326225L102.37241722678615,270.74775241186876L105.53647000248942,270.4877545266L108.59845655962161,270.4378910627062L111.76250933532488,267.36260512419375L114.92656211102813,271.497813731925L117.98854866816032,270.12415360996874L121.15260144386359,270.0846285594L124.21884076010289,269.41425411178125L127.38289353580616,269.1681677817937L130.54694631150943,269.09324116005L133.50686665007055,269.27029499030624L136.66666666666666,271.232837087325L139.72865322379886,272.42014287301873L142.8927059995021,272.89483711183124L145.9546925566343,272.677619612775L149.11874533233757,272.5190273272875L152.28279810804082,272.24282513926875L155.34478466517302,271.634172243825L158.50883744087628,272.91782239843127L161.5750767571156,273.52396203946876L164.73912953281885,272.51942135145L167.9031823085221,272.8049728049813L170.76103642851214,272.35254691689374L173.9208364451083,273.04368796635L176.98282300224048,273.59376215758124L180.14687577794373,273.7044698859L183.2088623350759,274.0733160183L186.3729151107792,272.6055730606125L189.53696788648244,272.8922194646062L192.59895444361464,271.6641046182L195.7630072193179,272.66961735345L198.82924653555722,272.24809636636877L201.99329931126047,272.53465346535L205.15735208696375,273.93552650435623L208.01520620695376,273.40852845538126L211.17500622354993,273.5749146049875L214.23699278068207,271.53631821676873L217.40104555638536,273.10481424975L220.46303211351753,272.92315957651874L223.6270848892208,271.62520578015L226.79113766492407,274.3067398458L229.85312422205627,274.5650442171375L233.01717699775952,276.20142199966875L236.0834163139988,273.99647344485L239.2474690897021,272.50944940655626L242.41152186540535,274.74173000750625L245.2693759853954,275.6053201752375L248.42917600199155,275.1942752161875L251.49116255912372,274.5683466828L254.655215334827,274.2002751970688L257.7172018919592,275.1097261461L260.8812546676624,275.93484278398125L264.0453074433657,277.07730938975624L267.10729400049786,277.8203790271125L270.27134677620114,279.2730847556812L273.33758609244046,277.83419878933125L276.50163886814374,277.6675710844875L279.66569164384697,277.51757843713125L282.62561198240815,278.83085592538123L285.7854119990042,278.75589848235L288.84739855613645,278.8011502173375L292.0114513318397,278.4042431473875L295.0734378889719,279.65822986130627L298.23749066467514,280.441405147575L301.4015434403784,278.7700169458875L304.4635299975106,280.31975910525L307.6275827732138,280.9905849934125L310.6938220894532,280.9877825669063L313.8578748651564,280.49854833200624L317.0219276408597,282.37767781741877L319.8797817608497,283.245473469825L323.03958177744585,284.27582186728125L326.101568334578,284.607023997675L329.2656211102813,284.9442206121375L332.3276076674135,283.99032005371873L335.49166044311676,285.13229914070627L338.65571321882,285.72095780139375L341.7176997759522,285.5611415052563L344.88175255165544,286.8281618365125L347.94799186789476,286.7587859756438L351.11204464359804,286.2892140247875L354.27609741930127,287.29060104405L357.13395153929133,288.37261775135624L360.29375155588747,288.444350158275L363.35573811301964,288.3302494353L366.5197908887229,287.790117254025L369.5817774458551,288.8206054558125L372.7458302215584,289.523697794475L375.90988299726166,290.20253418658126L378.97186955439383,289.95743476415623L382.1359223300971,290.20601074839374L385.2021616463364,289.31064141095624L388.36621442203966,289.35561305244374L391.53026719774294,290.6619399392625L394.38812131773295,291.18843654331874L397.5479213343291,291.3010812262875L400.6099078914613,291.3276903243375L403.77396066716454,291.06163217435625L406.8359472242968,291.23199156129374L410,290.5523255814" data-legend="ruby" style="stroke: rgb(31, 119, 180); fill: none;"></path><path class="line" d="M3.164052775703261,300L6.22603933283545,300L9.39009210853871,300L12.456331424778027,300L15.620384200481288,299.88088431485625L18.784436976184548,299.8924083319125L21.64229109617459,299.90751245499376L24.80209111277072,300L27.864077669902912,299.85329786401877L31.028130445606177,299.9331026116875L34.09011700273837,300L37.25416977844162,299.88441978735L40.41822255414488,299.88546120954373L43.48020911127708,300L46.64426188698033,299.90169607048125L49.71050120321965,299.94995729690623L52.87455397892291,299.95798225171876L56.03860675462618,299.9157170790937L58.89646087461622,300L62.056260891212354,299.92462008523125L65.11824744834453,299.9637042916125L68.28230022404779,299.9323605274125L71.34428678117997,299.9690000661375L74.50833955688324,299.94079757506876L77.67239233258651,299.9691915872625L80.7343788897187,300L83.89843166542197,299.9729558206312L86.96467098166127,299.94585463051874L90.12872375736453,299.9530445888625L93.2927765330678,299.932192152375L96.15063065305785,299.944250076825L99.31043066965397,299.94129434235L102.37241722678615,299.96266464890624L105.53647000248942,299.943354615225L108.59845655962161,299.776889743875L111.76250933532488,299.8603000754438L114.92656211102813,299.9082941239875L117.98854866816032,299.8892803716375L121.15260144386359,299.94848099064376L124.21884076010289,299.96393190345L127.38289353580616,299.90349974266877L130.54694631150943,299.864510068425L133.50686665007055,299.95817190789376L136.66666666666666,299.913221228025L139.72865322379886,299.91671910279376L142.8927059995021,299.9571346923375L145.9546925566343,299.92099552659374L149.11874533233757,299.9469990883875L152.28279810804082,299.90066450715L155.34478466517302,299.9624293672125L158.50883744087628,299.9746302786L161.5750767571156,299.9722618774687L164.73912953281885,299.952476301525L167.9031823085221,299.93929681430626L170.76103642851214,299.9570358149625L173.9208364451083,299.93462495060623L176.98282300224048,299.98877762949377L180.14687577794373,299.9763847956L183.2088623350759,299.9364801535875L186.3729151107792,299.9779964442375L189.53696788648244,299.8870509144375L192.59895444361464,299.9086593630375L195.7630072193179,299.94697248226873L198.82924653555722,299.89826186041876L201.99329931126047,299.9504950495125L205.15735208696375,299.90047929174375L208.01520620695376,299.96402912203126L211.17500622354993,299.96159144565L214.23699278068207,299.8940294796L217.40104555638536,272.3120898513L220.46303211351753,282.6379122177375L223.6270848892208,280.51948051948125L226.79113766492407,278.50638315759375L229.85312422205627,273.2554145789625L233.01717699775952,271.11375997318123L236.0834163139988,269.8412086641562L239.2474690897021,265.2982581794625L242.41152186540535,263.75744923813124L245.2693759853954,264.32722873275L248.42917600199155,260.01982346296876L251.49116255912372,261.4021783717312L254.655215334827,256.54046356839376L257.7172018919592,250.296363142275L260.8812546676624,247.228622101425L264.0453074433657,251.69219973284999L267.10729400049786,256.4678289590625L270.27134677620114,254.2742098808625L273.33758609244046,252.1031162230875L276.50163886814374,250.0401450760125L279.66569164384697,252.37841580995627L282.62561198240815,252.39742734541875L285.7854119990042,254.29792118353123L288.84739855613645,255.79349093608124L292.0114513318397,250.75064153904376L295.0734378889719,247.2178990537125L298.23749066467514,248.84675192439374L301.4015434403784,246.215910356925L304.4635299975106,248.938915973625L307.6275827732138,252.87473448534377L310.6938220894532,254.079971472L313.8578748651564,253.546624160325L317.0219276408597,256.1165399927625L319.8797817608497,256.60671229389374L323.03958177744585,258.44550641218126L326.101568334578,258.3823283511375L329.2656211102813,255.46748036295L332.3276076674135,254.247566025075L335.49166044311676,255.258642693075L338.65571321882,255.8478515879625L341.7176997759522,256.539257725875L344.88175255165544,258.8100993022687L347.94799186789476,258.1494636076312L351.11204464359804,255.59588370429375L354.27609741930127,257.6682094910062L357.13395153929133,255.40107372234377L360.29375155588747,258.155772482625L363.35573811301964,259.03196640555L366.5197908887229,261.13146544693126L369.5817774458551,256.1943004036125L372.7458302215584,257.144533083075L375.90988299726166,259.93190057911875L378.97186955439383,262.74861472475624L382.1359223300971,263.71549819991253L385.2021616463364,261.50595143941877L388.36621442203966,264.1244736212063L391.53026719774294,266.28046569954375L394.38812131773295,266.52612922284374L397.5479213343291,263.0951781337125L400.6099078914613,261.70613380378126L403.77396066716454,257.6255154931875L406.8359472242968,262.01939891019373L410,264.09666782368123" data-legend="swift" style="stroke: rgb(255, 127, 14); fill: none;"></path><path class="line" d="M3.164052775703261,299.1929119736063L6.22603933283545,300L9.39009210853871,299.85075220888126L12.456331424778027,299.8433845639875L15.620384200481288,299.047074518775L18.784436976184548,299.0316749871L21.64229109617459,299.630049819975L24.80209111277072,298.93642164973124L27.864077669902912,299.85329786401877L31.028130445606177,299.66551305838124L34.09011700273837,297.023902150575L37.25416977844162,297.2838650023125L40.41822255414488,292.039554062325L43.48020911127708,296.20203113295L46.64426188698033,295.37971531183126L49.71050120321965,295.99658375146873L52.87455397892291,296.0503316601L56.03860675462618,294.85874182456877L58.89646087461622,294.97929108073123L62.056260891212354,293.96960681836873L65.11824744834453,294.95489653305L68.28230022404779,293.98008693928125L71.34428678117997,292.74601547518125L74.50833955688324,291.62285687221873L77.67239233258651,292.729214590875L80.7343788897187,293.67970891220625L83.89843166542197,293.455308592125L86.96467098166127,293.9627913021L90.12872375736453,294.13057360730625L93.2927765330678,292.72195768790624L96.15063065305785,292.15784413809376L99.31043066965397,290.68536898464373L102.37241722678615,292.02890253980627L105.53647000248942,291.61648305170627L108.59845655962161,291.5589953097375L111.76250933532488,289.7669805258375L114.92656211102813,288.7752007747313L117.98854866816032,288.54051846313126L121.15260144386359,289.55881410110624L124.21884076010289,288.9270943541438L127.38289353580616,288.90247040660626L130.54694631150943,287.74568840930624L133.50686665007055,287.577056640825L136.66666666666666,287.74973002160624L139.72865322379886,287.757708109725L142.8927059995021,286.068775004775L145.9546925566343,285.1998286480875L149.11874533233757,285.530751128925L152.28279810804082,284.9577682247625L155.34478466517302,284.12014587425625L158.50883744087628,282.9008077719375L161.5750767571156,283.0936143143625L164.73912953281885,282.024161048325L167.9031823085221,279.676573426575L170.76103642851214,280.0646181343312L173.9208364451083,279.87538062808125L176.98282300224048,279.9119567624625L180.14687577794373,278.97066047004375L183.2088623350759,279.04903732145624L186.3729151107792,278.7775704553875L189.53696788648244,280.584052191525L192.59895444361464,278.65673782666875L195.7630072193179,276.74213071636876L198.82924653555722,278.3976016929375L201.99329931126047,276.64356435645L205.15735208696375,273.89571822105L208.01520620695376,274.56858927013127L211.17500622354993,273.622925297925L214.23699278068207,272.43706764028127L217.40104555638536,272.3580448888875L220.46303211351753,272.0476715534625L223.6270848892208,271.5337479422063L226.79113766492407,273.16957101339375L229.85312422205627,269.7702844674375L233.01717699775952,269.4291036730125L236.0834163139988,271.45513759348125L239.2474690897021,269.4173267207625L242.41152186540535,266.723762623575L245.2693759853954,264.65341367368126L248.42917600199155,266.94879686626876L251.49116255912372,265.20731233404376L254.655215334827,265.56036735609376L257.7172018919592,261.6310996713375L260.8812546676624,263.71061311764373L264.0453074433657,264.6595309356L267.10729400049786,262.73137812875626L270.27134677620114,262.5016876877625L273.33758609244046,265.1976205290563L276.50163886814374,263.08037321079377L279.66569164384697,263.9042774197125L282.62561198240815,262.06728328074377L285.7854119990042,260.26654763424375L288.84739855613645,262.14420120853123L292.0114513318397,260.41458949674376L295.0734378889719,259.96611835006877L298.23749066467514,260.57153292346874L301.4015434403784,263.6528617416187L304.4635299975106,259.1876971608938L307.6275827732138,261.593662093125L310.6938220894532,263.2663028311125L313.8578748651564,262.5555049527562L317.0219276408597,260.20974441170625L319.8797817608497,256.73775328351877L323.03958177744585,254.8339087483875L326.101568334578,256.14721159914376L329.2656211102813,252.6425379198375L332.3276076674135,251.71916965085626L335.49166044311676,251.164175718225L338.65571321882,250.62267640689376L341.7176997759522,249.3752772438375L344.88175255165544,249.321910794675L347.94799186789476,251.6261231039625L351.11204464359804,250.417561104225L354.27609741930127,244.219175290275L357.13395153929133,244.1448942872625L360.29375155588747,244.70708653614375L363.35573811301964,246.49486951507498L366.5197908887229,244.7007314511L369.5817774458551,247.52553260026875L372.7458302215584,250.656968559375L375.90988299726166,251.83387877756252L378.97186955439383,250.24643747484376L382.1359223300971,247.66031271196874L385.2021616463364,253.003895128125L388.36621442203966,250.33714526011875L391.53026719774294,245.18625603965626L394.38812131773295,247.99667006821875L397.5479213343291,243.79805916524998L400.6099078914613,246.69392047768125L403.77396066716454,245.43575725475625L406.8359472242968,248.01596926861873L410,248.16253037141252" data-legend="r" style="stroke: rgb(44, 160, 44); fill: none;"></path><path class="line" d="M3.164052775703261,293.13975177560627L6.22603933283545,288.1985751833063L9.39009210853871,284.0304863488125L12.456331424778027,280.73630136988123L15.620384200481288,282.966457023075L18.784436976184548,277.62093303495L21.64229109617459,273.17861194693126L24.80209111277072,268.4471756086125L27.864077669902912,263.3244660042375L31.028130445606177,267.01958755531876L34.09011700273837,260.3186953409625L37.25416977844162,259.7780859916875L40.41822255414488,260.312309102025L43.48020911127708,261.1878797968875L46.64426188698033,262.79196267073127L49.71050120321965,260.9166488737125L52.87455397892291,258.40242918609374L56.03860675462618,257.52140786191876L58.89646087461622,259.22028510885L62.056260891212354,256.5057891774562L65.11824744834453,252.6341005439625L68.28230022404779,251.46867841490626L71.34428678117997,239.95312809999376L74.50833955688324,244.4977266268875L77.67239233258651,249.16611896156252L80.7343788897187,248.669785464525L83.89843166542197,250.455063391575L86.96467098166127,250.321623494775L90.12872375736453,248.72469103340626L93.2927765330678,244.69139895125625L96.15063065305785,243.04216180858126L99.31043066965397,236.34349854410624L102.37241722678615,234.42045578998125L105.53647000248942,236.406114680475L108.59845655962161,230.55693277936876L111.76250933532488,232.594786398825L114.92656211102813,239.25402772207502L117.98854866816032,239.36255019290624L121.15260144386359,238.3145727814875L124.21884076010289,239.83841492739373L127.38289353580616,239.12442099845626L130.54694631150943,241.55867617305L133.50686665007055,246.1533027461625L136.66666666666666,242.8851049059L139.72865322379886,245.75637561536251L142.8927059995021,245.318155839225L145.9546925566343,242.86659831316877L149.11874533233757,243.97803642223124L152.28279810804082,251.59523341003126L155.34478466517302,248.177573838825L158.50883744087628,250.884219356775L161.5750767571156,248.1851871028875L164.73912953281885,251.22880443048751L167.9031823085221,251.99592074593124L170.76103642851214,252.20234412594374L173.9208364451083,255.32704958043752L176.98282300224048,256.82754059506874L180.14687577794373,259.93680571299376L183.2088623350759,259.90839026595L186.3729151107792,260.82266894330627L189.53696788648244,255.2043926652375L192.59895444361464,254.5428096650625L195.7630072193179,257.0583161288625L198.82924653555722,254.62478974119375L201.99329931126047,256.22772277228125L205.15735208696375,254.1906179838L208.01520620695376,254.72165734621876L211.17500622354993,254.97557215944374L214.23699278068207,255.55596373831875L217.40104555638536,256.721843348475L220.46303211351753,255.656004230475L223.6270848892208,257.44924089995624L226.79113766492407,257.564462085375L229.85312422205627,259.8993569466L233.01717699775952,263.0498718163875L236.0834163139988,263.1807407693062L239.2474690897021,265.997935575525L242.41152186540535,264.45999714521247L245.2693759853954,267.40127469121876L248.42917600199155,266.4043775274375L251.49116255912372,268.2028433256375L254.655215334827,268.630334609775L257.7172018919592,267.98585865838123L260.8812546676624,268.973247584175L264.0453074433657,269.48925413011875L267.10729400049786,271.3551052464562L270.27134677620114,275.24373024L273.33758609244046,275.25018753163124L276.50163886814374,275.3730723442125L279.66569164384697,276.598705587825L282.62561198240815,278.6348453320875L285.7854119990042,278.6889427369125L288.84739855613645,280.08321848829377L292.0114513318397,278.63920171295626L295.0734378889719,279.98838424575L298.23749066467514,281.10546354043123L301.4015434403784,281.46361914590625L304.4635299975106,282.3523085747062L307.6275827732138,283.10035019233123L310.6938220894532,282.53434215015L313.8578748651564,284.3411989069875L317.0219276408597,285.54452544680623L319.8797817608497,286.371737079375L323.03958177744585,287.887419531075L326.101568334578,288.0052105527187L329.2656211102813,286.98622020586873L332.3276076674135,288.3756714413625L335.49166044311676,289.41819574035003L338.65571321882,289.5845617214625L341.7176997759522,290.429543102175L344.88175255165544,290.90250160741874L347.94799186789476,291.6739868720625L351.11204464359804,292.1265958648875L354.27609741930127,292.6652838227063L357.13395153929133,293.41660892401876L360.29375155588747,293.51954511388124L363.35573811301964,293.4216850098563L366.5197908887229,294.0541051958625L369.5817774458551,293.97212730615L372.7458302215584,294.39230408259374L375.90988299726166,294.43403571950626L378.97186955439383,295.01954081799374L382.1359223300971,295.7389081169625L385.2021616463364,295.8107600442938L388.36621442203966,295.6305448641375L391.53026719774294,296.0552825041875L394.38812131773295,296.2135453032L397.5479213343291,295.6452939793875L400.6099078914613,296.268150359625L403.77396066716454,295.9800991260375L406.8359472242968,296.6366385L410,296.73507462688127" data-legend="objective-c" style="stroke: rgb(214, 39, 40); fill: none;"></path></g></g><g transform="translate(20, 150)"><text transform="rotate(-90)" x="-50" y="0" dy="1em" class="axis-label y-axis-label" style="text-anchor: middle; font-weight: bold;">% of Stack Overflow questions that month</text></g><g class="legend" transform="translate(530, 30)" style="font-size: 12px;"><text class="legend-title" style="font-weight: bold;">Tag</text><g class="legend-items" transform="translate(0,20)"><text y="0em" x="1em">c#</text><text y="1em" x="1em">python</text><text y="2em" x="1em">javascript</text><text y="3em" x="1em">java</text><text y="4em" x="1em">php</text><text y="5em" x="1em">c++</text><text y="6em" x="1em">objective-c</text><text y="7em" x="1em">r</text><text y="8em" x="1em">swift</text><text y="9em" x="1em">c</text><text y="10em" x="1em">ruby</text><text y="11em" x="1em">vb.net</text><text y="12em" x="1em">perl</text><text y="13em" x="1em">assembly</text><circle cy="-0.25em" cx="0" r="0.4em" style="fill: rgb(148, 103, 189);"></circle><circle cy="0.75em" cx="0" r="0.4em" style="fill: rgb(214, 39, 40);"></circle><circle cy="1.75em" cx="0" r="0.4em" style="fill: rgb(227, 119, 194);"></circle><circle cy="2.75em" cx="0" r="0.4em" style="fill: rgb(31, 119, 180);"></circle><circle cy="3.75em" cx="0" r="0.4em" style="fill: rgb(188, 189, 34);"></circle><circle cy="4.75em" cx="0" r="0.4em" style="fill: rgb(44, 160, 44);"></circle><circle cy="5.75em" cx="0" r="0.4em" style="fill: rgb(214, 39, 40);"></circle><circle cy="6.75em" cx="0" r="0.4em" style="fill: rgb(44, 160, 44);"></circle><circle cy="7.75em" cx="0" r="0.4em" style="fill: rgb(255, 127, 14);"></circle><circle cy="8.75em" cx="0" r="0.4em" style="fill: rgb(255, 127, 14);"></circle><circle cy="9.75em" cx="0" r="0.4em" style="fill: rgb(31, 119, 180);"></circle><circle cy="10.75em" cx="0" r="0.4em" style="fill: rgb(140, 86, 75);"></circle><circle cy="11.75em" cx="0" r="0.4em" style="fill: rgb(23, 190, 207);"></circle><circle cy="12.75em" cx="0" r="0.4em" style="fill: rgb(127, 127, 127);"></circle></g><rect class="legend-box"></rect></g></svg>
        