<svg xmlns="http://www.w3.org/2000/svg" version="1.1" class="w100 h-auto" width="660" height="400" viewBox="0 0 585 395"><g class="chart-area" font-family="sans-serif" transform="translate(100, 20)"><g transform="translate(0, 300)" fill="none" font-size="10" font-family="sans-serif" text-anchor="middle"><path class="domain" stroke="currentColor" d="M0.5,6V0.5H410.5V6"></path><g class="tick" opacity="1" transform="translate(35.39355730792399,0)"><line stroke="currentColor" y2="6"></line><text fill="currentColor" y="9" dy="0.71em" style="font-size: 12px;">2010</text></g><g class="tick" opacity="1" transform="translate(84.56392037675921,0)"><line stroke="currentColor" y2="6"></line><text fill="currentColor" y="9" dy="0.71em" style="font-size: 12px;">2012</text></g><g class="tick" opacity="1" transform="translate(133.8016401073326,0)"><line stroke="currentColor" y2="6"></line><text fill="currentColor" y="9" dy="0.71em" style="font-size: 12px;">2014</text></g><g class="tick" opacity="1" transform="translate(182.9720031761678,0)"><line stroke="currentColor" y2="6"></line><text fill="currentColor" y="9" dy="0.71em" style="font-size: 12px;">2016</text></g><g class="tick" opacity="1" transform="translate(232.20972290674115,0)"><line stroke="currentColor" y2="6"></line><text fill="currentColor" y="9" dy="0.71em" style="font-size: 12px;">2018</text></g><g class="tick" opacity="1" transform="translate(281.3800859755764,0)"><line stroke="currentColor" y2="6"></line><text fill="currentColor" y="9" dy="0.71em" style="font-size: 12px;">2020</text></g><g class="tick" opacity="1" transform="translate(330.61780570614974,0)"><line stroke="currentColor" y2="6"></line><text fill="currentColor" y="9" dy="0.71em" style="font-size: 12px;">2022</text></g><g class="tick" opacity="1" transform="translate(379.78816877498497,0)"><line stroke="currentColor" y2="6"></line><text fill="currentColor" y="9" dy="0.71em" style="font-size: 12px;">2024</text></g></g><g class="grid-lines" transform="translate(0, 300)" fill="none" font-size="10" font-family="sans-serif" text-anchor="middle"><path class="domain" stroke="currentColor" d="M0.5,-300V0.5H410.5V-300"></path><g class="tick" opacity="1" transform="translate(35.39355730792399,0)"><line stroke="currentColor" y2="-300" style="stroke: #ccc; fill: none;"></line></g><g class="tick" opacity="1" transform="translate(84.56392037675921,0)"><line stroke="currentColor" y2="-300" style="stroke: #ccc; fill: none;"></line></g><g class="tick" opacity="1" transform="translate(133.8016401073326,0)"><line stroke="currentColor" y2="-300" style="stroke: #ccc; fill: none;"></line></g><g class="tick" opacity="1" transform="translate(182.9720031761678,0)"><line stroke="currentColor" y2="-300" style="stroke: #ccc; fill: none;"></line></g><g class="tick" opacity="1" transform="translate(232.20972290674115,0)"><line stroke="currentColor" y2="-300" style="stroke: #ccc; fill: none;"></line></g><g class="tick" opacity="1" transform="translate(281.3800859755764,0)"><line stroke="currentColor" y2="-300" style="stroke: #ccc; fill: none;"></line></g><g class="tick" opacity="1" transform="translate(330.61780570614974,0)"><line stroke="currentColor" y2="-300" style="stroke: #ccc; fill: none;"></line></g><g class="tick" opacity="1" transform="translate(379.78816877498497,0)"><line stroke="currentColor" y2="-300" style="stroke: #ccc; fill: none;"></line></g></g><text x="205" y="360" class="axis-label x-axis-label" style="text-anchor: middle; font-weight: bold;">Year</text><g fill="none" font-size="10" font-family="sans-serif" text-anchor="end"><path class="domain" stroke="currentColor" d="M-6,300.5H0.5V0.5H-6"></path><g class="tick" opacity="1" transform="translate(0,300.5)"><line stroke="currentColor" x2="-6"></line><text fill="currentColor" x="-9" dy="0.32em" style="font-size: 12px;">0.00%</text></g><g class="tick" opacity="1" transform="translate(0,267.16666666666663)"><line stroke="currentColor" x2="-6"></line><text fill="currentColor" x="-9" dy="0.32em" style="font-size: 12px;">2.00%</text></g><g class="tick" opacity="1" transform="translate(0,233.83333333333334)"><line stroke="currentColor" x2="-6"></line><text fill="currentColor" x="-9" dy="0.32em" style="font-size: 12px;">4.00%</text></g><g class="tick" opacity="1" transform="translate(0,200.50000000000003)"><line stroke="currentColor" x2="-6"></line><text fill="currentColor" x="-9" dy="0.32em" style="font-size: 12px;">6.00%</text></g><g class="tick" opacity="1" transform="translate(0,167.16666666666669)"><line stroke="currentColor" x2="-6"></line><text fill="currentColor" x="-9" dy="0.32em" style="font-size: 12px;">8.00%</text></g><g class="tick" opacity="1" transform="translate(0,133.83333333333331)"><line stroke="currentColor" x2="-6"></line><text fill="currentColor" x="-9" dy="0.32em" style="font-size: 12px;">10.00%</text></g><g class="tick" opacity="1" transform="translate(0,100.50000000000001)"><line stroke="currentColor" x2="-6"></line><text fill="currentColor" x="-9" dy="0.32em" style="font-size: 12px;">12.00%</text></g><g class="tick" opacity="1" transform="translate(0,67.16666666666663)"><line stroke="currentColor" x2="-6"></line><text fill="currentColor" x="-9" dy="0.32em" style="font-size: 12px;">14.00%</text></g><g class="tick" opacity="1" transform="translate(0,33.833333333333314)"><line stroke="currentColor" x2="-6"></line><text fill="currentColor" x="-9" dy="0.32em" style="font-size: 12px;">16.00%</text></g><g class="tick" opacity="1" transform="translate(0,0.5)"><line stroke="currentColor" x2="-6"></line><text fill="currentColor" x="-9" dy="0.32em" style="font-size: 12px;">18.00%</text></g></g><g class="grid-lines" fill="none" font-size="10" font-family="sans-serif" text-anchor="end"><path class="domain" stroke="currentColor" d="M410,300.5H0.5V0.5H410"></path><g class="tick" opacity="1" transform="translate(0,300.5)"><line stroke="currentColor" x2="410" style="stroke: #ccc; fill: none;"></line></g><g class="tick" opacity="1" transform="translate(0,267.16666666666663)"><line stroke="currentColor" x2="410" style="stroke: #ccc; fill: none;"></line></g><g class="tick" opacity="1" transform="translate(0,233.83333333333334)"><line stroke="currentColor" x2="410" style="stroke: #ccc; fill: none;"></line></g><g class="tick" opacity="1" transform="translate(0,200.50000000000003)"><line stroke="currentColor" x2="410" style="stroke: #ccc; fill: none;"></line></g><g class="tick" opacity="1" transform="translate(0,167.16666666666669)"><line stroke="currentColor" x2="410" style="stroke: #ccc; fill: none;"></line></g><g class="tick" opacity="1" transform="translate(0,133.83333333333331)"><line stroke="currentColor" x2="410" style="stroke: #ccc; fill: none;"></line></g><g class="tick" opacity="1" transform="translate(0,100.50000000000001)"><line stroke="currentColor" x2="410" style="stroke: #ccc; fill: none;"></line></g><g class="tick" opacity="1" transform="translate(0,67.16666666666663)"><line stroke="currentColor" x2="410" style="stroke: #ccc; fill: none;"></line></g><g class="tick" opacity="1" transform="translate(0,33.833333333333314)"><line stroke="currentColor" x2="410" style="stroke: #ccc; fill: none;"></line></g><g class="tick" opacity="1" transform="translate(0,0.5)"><line stroke="currentColor" x2="410" style="stroke: #ccc; fill: none;"></line></g></g><g class="lines"><path class="line" d="M2.088,163.653L4.109,166.736L6.197,172.719L8.22,184.341L10.308,177.952L12.396,184.52L14.282,182.257L16.368,178.975L18.388,181.238L20.476,174.015L22.497,182.596L24.585,187.302L26.673,184.609L28.694,183.886L30.782,179.238L32.806,180.387L34.894,160.574L36.982,165.751L38.868,156.943L40.953,169.875L42.974,165.189L45.062,170.968L47.082,175.486L49.17,175.924L51.258,170.858L53.279,167.865L55.367,165.25L57.391,163.106L59.479,162.793L61.567,161.121L63.453,159.202L65.538,161.356L67.559,157.044L69.647,166.45L71.667,164.005L73.756,164.362L75.844,163.091L77.864,158.558L79.952,151.744L81.976,151.57L84.064,153.565L86.152,151.826L88.105,144.874L90.191,143.637L92.211,148.169L94.299,158.007L96.32,155.427L98.408,154.824L100.496,152.824L102.517,149.254L104.605,146.066L106.628,146.29L108.716,154.191L110.805,150.2L112.691,146.487L114.776,141.607L116.796,146.632L118.885,152.789L120.905,156.209L122.993,152.08L125.081,135.808L127.102,130.114L129.19,122.285L131.214,123.566L133.302,134.546L135.39,128.827L137.276,123.286L139.361,120.538L141.382,129.553L143.47,136.202L145.49,135.921L147.578,138.893L149.667,131.809L151.687,126.835L153.775,120.837L155.799,123.563L157.887,132.898L159.975,133.063L161.861,125.207L163.946,124.848L165.967,132.308L168.055,140.407L170.076,139.438L172.164,141.722L174.252,139.855L176.272,132.792L178.36,132.45L180.384,138.789L182.472,145.627L184.56,140.718L186.513,134.192L188.599,133.458L190.619,148.961L192.707,154.621L194.728,157.801L196.816,159.307L198.904,156.102L200.925,152.773L203.013,149.536L205.036,156.544L207.125,161.444L209.213,160.151L211.099,155.506L213.184,150.067L215.205,152.61L217.293,161.922L219.313,167.791L221.401,169.516L223.489,167.601L225.51,161.402L227.598,158.832L229.622,161.35L231.71,170.347L233.798,167.651L235.684,167.95L237.769,160.291L239.79,164.616L241.878,171.249L243.898,176.043L245.987,179.484L248.075,174.635L250.095,168.469L252.183,168.035L254.207,166.678L256.295,175.399L258.383,173.252L260.269,173.773L262.354,177.149L264.375,176.356L266.463,180.342L268.484,178.958L270.572,188.123L272.66,180.705L274.68,176.178L276.769,182.722L278.792,185.361L280.88,185.901L282.968,183.426L284.921,180.587L287.007,183.896L289.027,191.55L291.115,193.929L293.136,194.062L295.224,194.41L297.312,193.658L299.333,193.885L301.421,194.242L303.445,201.913L305.533,203.276L307.621,203.136L309.507,201.837L311.592,201.88L313.613,200.06L315.701,201.005L317.721,205.713L319.809,207.021L321.897,207.131L323.918,207.22L326.006,202.419L328.03,207.296L330.118,209.192L332.206,212.522L334.092,210.507L336.177,206.431L338.198,206.305L340.286,213.674L342.307,217.936L344.395,220.962L346.483,218.228L348.503,216.194L350.591,216.81L352.615,215.987L354.703,218.491L356.791,219.564L358.677,213.261L360.762,210.621L362.783,215.248L364.871,211.373L366.892,215.191L368.98,214.225L371.068,214.083L373.089,214.065L375.177,212.665L377.2,219.104L379.288,220.111L381.376,218.54L383.33,214.659L385.415,219.447L387.436,227.873L389.524,228.155L391.544,233.023L393.632,238.953L395.72,228.503L397.741,211.726L399.829,211.14L401.853,211.839L403.941,211.283L406.029,217.502L407.915,218.156L410,205.267" data-legend="java" style="stroke: rgb(31, 119, 180); fill: none;"></path><path class="line" d="M2.088,261.113L4.109,264.735L6.197,265.542L8.22,273.612L10.308,266.122L12.396,268.051L14.282,264.553L16.368,263.994L18.388,268.605L20.476,270.177L22.497,271.98L24.585,272.69L26.673,270.743L28.694,264.176L30.782,257.977L32.806,262.11L34.894,263.362L36.982,261.128L38.868,264.139L40.953,260.347L42.974,261.825L45.062,265.197L47.082,264.492L49.17,263.946L51.258,262.36L53.279,262.074L55.367,259.561L57.391,264.567L59.479,269.322L61.567,266.888L63.453,264.867L65.538,264.239L67.559,269.377L69.647,270.098L71.667,272.255L73.756,271.29L75.844,268.342L77.864,264.415L79.952,265.976L81.976,267.434L84.064,267.754L86.152,267.343L88.105,265.767L90.191,265.07L92.211,268.975L94.299,270.358L96.32,272.005L98.408,272.513L100.496,267.889L102.517,264.655L104.605,263.835L106.628,268.205L108.716,269.09L110.805,266.074L112.691,266.876L114.776,265.45L116.796,267.797L118.885,268.866L120.905,271.441L122.993,270.359L125.081,265.714L127.102,261.446L129.19,259.345L131.214,264.536L133.302,266.904L135.39,264.54L137.276,263.222L139.361,265.512L141.382,269.004L143.47,271.434L145.49,273.256L147.578,272.489L149.667,267.367L151.687,263.151L153.775,263.178L155.799,265.941L157.887,267.485L159.975,266.422L161.861,265.294L163.946,264.979L165.967,268.119L168.055,271.648L170.076,275.81L172.164,276.14L174.252,270.793L176.272,266.788L178.36,265.898L180.384,269.854L182.472,271.72L184.56,270.733L186.513,271.261L188.599,271.264L190.619,275.797L192.707,278.996L194.728,277.628L196.816,279.537L198.904,275.355L200.925,269.16L203.013,268.608L205.036,270.968L207.125,273.725L209.213,273.813L211.099,275.256L213.184,273.154L215.205,275.231L217.293,277.85L219.313,280.87L221.401,280.619L223.489,278.216L225.51,272.505L227.598,270.629L229.622,274.561L231.71,276.766L233.798,276.42L235.684,275.997L237.769,277.373L239.79,276.256L241.878,279.978L243.898,283.103L245.987,282.119L248.075,278.546L250.095,274.272L252.183,271.554L254.207,271.993L256.295,274.223L258.383,276.331L260.269,275.026L262.354,273.269L264.375,276.638L266.463,278.554L268.484,280.419L270.572,280.927L272.66,275.256L274.68,272.585L276.769,271.451L278.792,272.694L280.88,276.428L282.968,276.965L284.921,273.2L287.007,270.068L289.027,269.605L291.115,274.592L293.136,278.721L295.224,278.481L297.312,274.415L299.333,271.846L301.421,266.38L303.445,266.766L305.533,269.073L307.621,271.307L309.507,271.844L311.592,271.503L313.613,273.741L315.701,275.583L317.721,278.075L319.809,278.907L321.897,276.024L323.918,270.358L326.006,268.756L328.03,268.455L330.118,272.491L332.206,275.187L334.092,273.434L336.177,274.329L338.198,274.341L340.286,276.407L342.307,279L344.395,278.595L346.483,274.836L348.503,269.993L350.591,269.161L352.615,269.942L354.703,275.017L356.791,275.749L358.677,276.868L360.762,272.908L362.783,274.964L364.871,278.23L366.892,277.339L368.98,277.569L371.068,273.65L373.089,271.312L375.177,269.901L377.2,267.53L379.288,271.946L381.376,273.117L383.33,273.788L385.415,274.138L387.436,278.853L389.524,277.835L391.544,277.377L393.632,276.266L395.72,276.079L397.741,273.47L399.829,272.782L401.853,273.971L403.941,275.659L406.029,276.121L407.915,273.583L410,277.026" data-legend="c" style="stroke: rgb(255, 127, 14); fill: none;"></path><path class="line" d="M2.088,208.494L4.109,206.308L6.197,202.102L8.22,211.571L10.308,209.693L12.396,219.068L14.282,213.82L16.368,219.502L18.388,220.563L20.476,225.354L22.497,223.661L24.585,227.88L26.673,225.272L28.694,221.847L30.782,223.499L32.806,226.231L34.894,225.187L36.982,214.435L38.868,221.699L40.953,216.389L42.974,221.771L45.062,214.865L47.082,226.05L49.17,230.614L51.258,225.077L53.279,222.776L55.367,218.759L57.391,224.394L59.479,226.757L61.567,230.348L63.453,230.568L65.538,226.841L67.559,235.179L69.647,235.52L71.667,235.63L73.756,238.002L75.844,235.062L77.864,227.913L79.952,231.067L81.976,229.47L84.064,234.253L86.152,230.764L88.105,234.346L90.191,230.85L92.211,237.71L94.299,240.51L96.32,237.711L98.408,238.821L100.496,237.804L102.517,233.818L104.605,228.899L106.628,229.492L108.716,235.764L110.805,233.556L112.691,230.617L114.776,230.36L116.796,231.199L118.885,234.279L120.905,237.483L122.993,238.439L125.081,233.881L127.102,227.586L129.19,222.851L131.214,229.072L133.302,231.889L135.39,231.681L137.276,230.073L139.361,229.931L141.382,235.557L143.47,241.663L145.49,240.669L147.578,239.727L149.667,237.578L151.687,233.763L153.775,234.076L155.799,234.433L157.887,238.007L159.975,235.467L161.861,234.568L163.946,236.752L165.967,238.325L168.055,241.636L170.076,242.312L172.164,245.553L174.252,244.042L176.272,236.382L178.36,233.054L180.384,236.013L182.472,243.263L184.56,241.447L186.513,241.408L188.599,241L190.619,245.486L192.707,247.829L194.728,247.946L196.816,253.487L198.904,249.467L200.925,242.583L203.013,241.617L205.036,245.846L207.125,246.227L209.213,250.4L211.099,248.042L213.184,244.655L215.205,252.173L217.293,255.843L219.313,252.988L221.401,254.605L223.489,253.632L225.51,248.355L227.598,249.833L229.622,248.366L231.71,250.161L233.798,249.685L235.684,249.542L237.769,251.681L239.79,252.855L241.878,255.268L243.898,258.706L245.987,258.409L248.075,256.26L250.095,254.7L252.183,251.007L254.207,254.62L256.295,255.817L258.383,256.968L260.269,253.589L262.354,251.808L264.375,253.904L266.463,254.724L268.484,252.288L270.572,259.543L272.66,253.363L274.68,246.502L276.769,246.247L278.792,246.627L280.88,251.448L282.968,252.647L284.921,249.89L287.007,242.836L289.027,242.227L291.115,244.883L293.136,247.56L295.224,245.769L297.312,253.348L299.333,248.631L301.421,246.169L303.445,243.999L305.533,250.544L307.621,247.602L309.507,251.294L311.592,251.301L313.613,247.367L315.701,250.063L317.721,252.659L319.809,255.25L321.897,249.534L323.918,247.511L326.006,246.218L328.03,246.444L330.118,249.109L332.206,252.752L334.092,252.184L336.177,248.925L338.198,248.856L340.286,253.512L342.307,254.626L344.395,256.022L346.483,254.906L348.503,253.547L350.591,254.429L352.615,254.319L354.703,258.076L356.791,259.851L358.677,254.605L360.762,256.16L362.783,258.476L364.871,256.086L366.892,255.245L368.98,257.253L371.068,255.71L373.089,249.933L375.177,255.323L377.2,248.104L379.288,249.019L381.376,251.176L383.33,252.923L385.415,253.638L387.436,254.477L389.524,254.505L391.544,252.637L393.632,251.279L395.72,246.278L397.741,247.382L399.829,243.453L401.853,245.818L403.941,247.048L406.029,248.05L407.915,239.177L410,239.133" data-legend="c++" style="stroke: rgb(44, 160, 44); fill: none;"></path><path class="line" d="M2.088,235.108L4.109,241.224L6.197,240.3L8.22,238.521L10.308,232.564L12.396,239.469L14.282,236.873L16.368,239.012L18.388,234.786L20.476,237.785L22.497,239.628L24.585,241.612L26.673,240.208L28.694,234.207L30.782,232.009L32.806,229.224L34.894,227.437L36.982,230.075L38.868,233.277L40.953,239.293L42.974,234.928L45.062,233.475L47.082,228.596L49.17,234.209L51.258,238.247L53.279,229.634L55.367,237.239L57.391,240.212L59.479,239.066L61.567,239.092L63.453,237.655L65.538,241.554L67.559,241.105L69.647,241.232L71.667,238.947L73.756,240.015L75.844,242.046L77.864,240.075L79.952,240.279L81.976,241.261L84.064,239.21L86.152,238.935L88.105,236.754L90.191,235.797L92.211,236.322L94.299,232.227L96.32,232.254L98.408,230.377L100.496,233.331L102.517,231.266L104.605,227.431L106.628,228.695L108.716,230.099L110.805,226.206L112.691,226.407L114.776,222.347L116.796,221.285L118.885,219.458L120.905,218.163L122.993,221.656L125.081,219.391L127.102,213.653L129.19,209.679L131.214,214.438L133.302,212.597L135.39,211.677L137.276,207.783L139.361,207.292L141.382,212.023L143.47,207.956L145.49,206.111L147.578,206.398L149.667,211.385L151.687,206.96L153.775,203.629L155.799,202.252L157.887,201.989L159.975,198.247L161.861,197.329L163.946,198.835L165.967,198.457L168.055,194.401L170.076,194.028L172.164,195.983L174.252,196.306L176.272,187.315L178.36,183.997L180.384,186.399L182.472,185.222L184.56,181.613L186.513,182.489L188.599,183.314L190.619,183.49L192.707,182.076L194.728,177.917L196.816,180.3L198.904,178.726L200.925,170.137L203.013,163.644L205.036,164.813L207.125,164.174L209.213,158.041L211.099,157.113L213.184,152.59L215.205,154.066L217.293,148.873L219.313,141.703L221.401,143.531L223.489,139.632L225.51,132.369L227.598,131.04L229.622,127.245L231.71,129.598L233.798,120.679L235.684,125.58L237.769,124.215L239.79,123.349L241.878,116.474L243.898,110.5L245.987,110.751L248.075,112.528L250.095,108.927L252.183,96.74L254.207,99.12L256.295,108.364L258.383,97.65L260.269,91.18L262.354,81.659L264.375,88.971L266.463,85.773L268.484,79.147L270.572,77.815L272.66,91.47L274.68,73.833L276.769,65.66L278.792,69.701L280.88,70.51L282.968,67.458L284.921,55.43L287.007,45.729L289.027,34.307L291.115,34.129L293.136,33.249L295.224,38.658L297.312,41.583L299.333,29.374L301.421,23.601L303.445,21.435L305.533,24.633L307.621,26.094L309.507,30.091L311.592,22.255L313.613,18.204L315.701,27.275L317.721,20.956L319.809,26.579L321.897,33.085L323.918,19.955L326.006,16.887L328.03,14.677L330.118,22.388L332.206,15.116L334.092,17.546L336.177,7.841L338.198,18.929L340.286,16.564L342.307,11.015L344.395,21.515L346.483,22.785L348.503,6.449L350.591,10.326L352.615,23.662L354.703,39.578L356.791,43.603L358.677,52.322L360.762,51.863L362.783,57.169L364.871,59.008L366.892,57.24L368.98,67.532L371.068,76.398L373.089,70.041L375.177,72.943L377.2,76.738L379.288,79.344L381.376,71.698L383.33,76.442L385.415,71.043L387.436,80.391L389.524,86.357L391.544,84.469L393.632,84.266L395.72,97.89L397.741,95.958L399.829,79.458L401.853,90.68L403.941,92.034L406.029,104.265L407.915,95.179L410,93.509" data-legend="python" style="stroke: rgb(214, 39, 40); fill: none;"></path><path class="line" d="M2.088,274.237L4.109,271.951L6.197,269.95L8.22,269.962L10.308,273.603L12.396,272.766L14.282,267.528L16.368,270.339L18.388,271.948L20.476,274.241L22.497,276.728L24.585,271.864L26.673,275.551L28.694,280.206L30.782,280.348L32.806,277.793L34.894,279.975L36.982,277.481L38.868,278.361L40.953,279.652L42.974,282.338L45.062,283.444L47.082,281.263L49.17,283.638L51.258,283.833L53.279,283.331L55.367,282.848L57.391,285.029L59.479,282.452L61.567,283.627L63.453,285.177L65.538,282.524L67.559,284.655L69.647,284.802L71.667,285.239L73.756,285.653L75.844,286.248L77.864,285.256L79.952,286.741L81.976,286.057L84.064,285.743L86.152,285.776L88.105,287.052L90.191,287.133L92.211,286.835L94.299,288.461L96.32,287.994L98.408,286.912L100.496,285.856L102.517,286.678L104.605,285.263L106.628,286.423L108.716,285.806L110.805,285.761L112.691,286.504L114.776,284.79L116.796,285.64L118.885,285.125L120.905,284.674L122.993,284.615L125.081,284.125L127.102,283.532L129.19,284.8L131.214,284.439L133.302,284.304L135.39,284.885L137.276,284.204L139.361,284.392L141.382,286.332L143.47,286.366L145.49,286L147.578,286.528L149.667,286.929L151.687,286.589L153.775,286.765L155.799,286.031L157.887,286.687L159.975,287.93L161.861,288.023L163.946,288.169L165.967,288.012L168.055,287.659L170.076,288.293L172.164,288.646L174.252,288.298L176.272,288.987L178.36,289.399L180.384,288.843L182.472,288.563L184.56,289.16L186.513,289.22L188.599,289.809L190.619,289.254L192.707,289.984L194.728,289.899L196.816,289.913L198.904,290.572L200.925,290.575L203.013,290.649L205.036,290.94L207.125,290.92L209.213,291.088L211.099,291.225L213.184,291.137L215.205,291.46L217.293,291.856L219.313,291.877L221.401,292.626L223.489,292.242L225.51,292.575L227.598,292.415L229.622,292.473L231.71,293.396L233.798,292.952L235.684,293.474L237.769,294.076L239.79,293.164L241.878,293.516L243.898,293.75L245.987,294.557L248.075,293.263L250.095,293.919L252.183,293.732L254.207,294.132L256.295,293.377L258.383,292.87L260.269,293.549L262.354,293.119L264.375,293.625L266.463,293.487L268.484,293.75L270.572,294.339L272.66,294.313L274.68,294.018L276.769,294.464L278.792,293.959L280.88,294.785L282.968,294.472L284.921,294.343L287.007,294.683L289.027,295.414L291.115,295.275L293.136,295.324L295.224,295.133L297.312,295.148L299.333,294.775L301.421,295.263L303.445,295.467L305.533,295.416L307.621,295.321L309.507,294.888L311.592,294.806L313.613,295.813L315.701,295.836L317.721,296.278L319.809,295.607L321.897,296.046L323.918,295.621L326.006,296.066L328.03,295.489L330.118,296.157L332.206,295.54L334.092,295.821L336.177,296.316L338.198,296.185L340.286,295.749L342.307,295.849L344.395,296.478L346.483,295.972L348.503,296.478L350.591,296.031L352.615,296.439L354.703,295.761L356.791,295.418L358.677,295.524L360.762,296.453L362.783,295.344L364.871,295.683L366.892,295.543L368.98,296.219L371.068,295.956L373.089,295.31L375.177,296.297L377.2,295.851L379.288,296.226L381.376,296.902L383.33,295.782L385.415,295.74L387.436,296.126L389.524,297.27L391.544,295.877L393.632,296.156L395.72,295.49L397.741,295.659L399.829,295.594L401.853,296.896L403.941,296.37L406.029,295.745L407.915,298.108L410,296.064" data-legend="vb.net" style="stroke: rgb(148, 103, 189); fill: none;"></path><path class="line" d="M2.088,223.441L4.109,216.201L6.197,222.403L8.22,212.273L10.308,215.892L12.396,209.156L14.282,216.877L16.368,217.361L18.388,206.406L20.476,207.484L22.497,208.477L24.585,204.184L26.673,210.235L28.694,205.027L30.782,202.049L32.806,197.098L34.894,201.712L36.982,200.864L38.868,203.704L40.953,198.799L42.974,195.295L45.062,195.046L47.082,192.673L49.17,194.375L51.258,190.187L53.279,191.839L55.367,190.325L57.391,180.279L59.479,186.106L61.567,186.543L63.453,187.498L65.538,179.131L67.559,177.661L69.647,169.85L71.667,164.709L73.756,160.618L75.844,165.474L77.864,167.221L79.952,166.818L81.976,165.317L84.064,161.262L86.152,164.971L88.105,165.703L90.191,161.135L92.211,156.273L94.299,156.081L96.32,154.428L98.408,152.561L100.496,158.24L102.517,161.081L104.605,160.143L106.628,154.404L108.716,153.208L110.805,150.64L112.691,152.357L114.776,150.22L116.796,148.424L118.885,145.543L120.905,140.377L122.993,134.277L125.081,121.022L127.102,120.745L129.19,124.418L131.214,117.503L133.302,112.782L135.39,111.514L137.276,117.361L139.361,115.339L141.382,112.091L143.47,111.426L145.49,109.834L147.578,110.918L149.667,117.184L151.687,116.622L153.775,119.106L155.799,116.736L157.887,112.772L159.975,114.088L161.861,118.392L163.946,114.945L165.967,99.809L168.055,97.767L170.076,94.078L172.164,94.754L174.252,97.77L176.272,103.3L178.36,99.521L180.384,94.612L182.472,90.922L184.56,99.491L186.513,99.079L188.599,99.528L190.619,95.865L192.707,97.849L194.728,88.851L196.816,90.155L198.904,99.355L200.925,103.662L203.013,103.051L205.036,94.703L207.125,96.204L209.213,96.311L211.099,102.074L213.184,99.882L215.205,97.953L217.293,96.146L219.313,97.668L221.401,97.48L223.489,102.968L225.51,103.702L227.598,106.636L229.622,103.56L231.71,101.634L233.798,110.488L235.684,113.613L237.769,113.884L239.79,118.338L241.878,112.301L243.898,111.845L245.987,109.607L248.075,112.657L250.095,116.845L252.183,117.48L254.207,117.774L256.295,118.775L258.383,119.039L260.269,118.174L262.354,122.042L264.375,119.783L266.463,115.878L268.484,119.588L270.572,112.549L272.66,116.461L274.68,123.313L276.769,120.966L278.792,117.978L280.88,115.901L282.968,117.132L284.921,110.428L287.007,107.665L289.027,105.991L291.115,105.981L293.136,98.401L295.224,95.442L297.312,100.401L299.333,104.913L301.421,106.503L303.445,98.826L305.533,97.01L307.621,104.588L309.507,110.175L311.592,103.549L313.613,101.169L315.701,104.243L317.721,99.89L319.809,98.645L321.897,97.587L323.918,104.688L326.006,110.165L328.03,103.926L330.118,103.539L332.206,110.741L334.092,115.04L336.177,101.765L338.198,107.381L340.286,109.418L342.307,106.616L344.395,105.26L346.483,107.068L348.503,115.624L350.591,120L352.615,121.169L354.703,125.641L356.791,133.203L358.677,136.167L360.762,138.434L362.783,144.083L364.871,144.117L366.892,140.348L368.98,152.658L371.068,155.96L373.089,165.291L375.177,165.16L377.2,151.97L379.288,157.417L381.376,165.254L383.33,160.54L385.415,170.347L387.436,173.504L389.524,174.653L391.544,179.419L393.632,178.574L395.72,181.546L397.741,188.894L399.829,187.365L401.853,190.385L403.941,190.092L406.029,194.702L407.915,194.892L410,198.768" data-legend="javascript" style="stroke: rgb(140, 86, 75); fill: none;"></path><path class="line" d="M2.088,296.597L4.109,298.138L6.197,297.863L8.22,297.614L10.308,297.649L12.396,296.536L14.282,298.017L16.368,296.035L18.388,296.985L20.476,297.191L22.497,298.33L24.585,297.522L26.673,296.829L28.694,296.608L30.782,296.403L32.806,297.23L34.894,296.25L36.982,297.406L38.868,296.033L40.953,295.83L42.974,296.5L45.062,297.281L47.082,297.343L49.17,297.727L51.258,296.783L53.279,296.756L55.367,296.038L57.391,296.977L59.479,297.202L61.567,297.018L63.453,296.782L65.538,297.202L67.559,297.347L69.647,297.637L71.667,297.654L73.756,297.499L75.844,297.451L77.864,296.485L79.952,296.728L81.976,296.298L84.064,297.551L86.152,296.871L88.105,296.706L90.191,296.369L92.211,297.16L94.299,297.429L96.32,297.623L98.408,297.749L100.496,297.184L102.517,296.47L104.605,296.563L106.628,296.765L108.716,296.89L110.805,296.435L112.691,296.439L114.776,296.765L116.796,296.972L118.885,296.899L120.905,297.172L122.993,297.92L125.081,297.067L127.102,296.569L129.19,296.021L131.214,296.392L133.302,296.984L135.39,296.654L137.276,296.372L139.361,296.884L141.382,296.868L143.47,297.259L145.49,297.973L147.578,298.112L149.667,297.197L151.687,296.225L153.775,296.155L155.799,296.505L157.887,296.629L159.975,296.437L161.861,296.615L163.946,296.136L165.967,296.669L168.055,297.613L170.076,297.766L172.164,297.965L174.252,297.572L176.272,296.127L178.36,296.205L180.384,296.568L182.472,297.698L184.56,296.891L186.513,296.356L188.599,296.454L190.619,297.111L192.707,297.352L194.728,298.07L196.816,297.62L198.904,296.696L200.925,296.18L203.013,296.034L205.036,296.775L207.125,297.078L209.213,297.1L211.099,296.919L213.184,297.023L215.205,296.87L217.293,297.737L219.313,297.934L221.401,297.954L223.489,297.615L225.51,296.734L227.598,296.162L229.622,297.131L231.71,297.346L233.798,296.901L235.684,296.903L237.769,296.674L239.79,297.016L241.878,297.777L243.898,298.072L245.987,298.118L248.075,296.996L250.095,296.632L252.183,296.594L254.207,297.207L256.295,297.528L258.383,297.419L260.269,297.095L262.354,296.653L264.375,297.378L266.463,297.517L268.484,297.902L270.572,297.948L272.66,297.262L274.68,296.493L276.769,296.792L278.792,296.833L280.88,297.369L282.968,296.851L284.921,296.825L287.007,296.514L289.027,296.765L291.115,296.781L293.136,297.26L295.224,296.991L297.312,296.487L299.333,295.908L301.421,295.314L303.445,296.25L305.533,296.299L307.621,296.863L309.507,296.38L311.592,296.039L313.613,296.205L315.701,296.624L317.721,297.491L319.809,297.769L321.897,297.317L323.918,297.114L326.006,296.023L328.03,296.017L330.118,296.781L332.206,296.833L334.092,296.821L336.177,296.345L338.198,296.287L340.286,296.402L342.307,296.902L344.395,297.572L346.483,297.179L348.503,296.43L350.591,295.861L352.615,295.479L354.703,296.092L356.791,296.662L358.677,296.875L360.762,295.616L362.783,295.904L364.871,296.296L366.892,295.949L368.98,296.191L371.068,295.635L373.089,294.825L375.177,294.68L377.2,293.338L379.288,294.161L381.376,295.575L383.33,294.916L385.415,293.496L387.436,294.318L389.524,296.36L391.544,296.174L393.632,294.568L395.72,295.402L397.741,294.292L399.829,293.528L401.853,292.758L403.941,294.929L406.029,294.919L407.915,294.464L410,294.051" data-legend="assembly" style="stroke: rgb(227, 119, 194); fill: none;"></path><path class="line" d="M2.088,242.52L4.109,229.818L6.197,233.622L8.22,233.608L10.308,233.205L12.396,227.729L14.282,226.379L16.368,224.657L18.388,223.709L20.476,206.229L22.497,195.641L24.585,188.18L26.673,185.377L28.694,191.46L30.782,183.099L32.806,174.892L34.894,172.274L36.982,182.18L38.868,180.388L40.953,178.115L42.974,172.059L45.062,177.221L47.082,173.438L49.17,165.299L51.258,171.738L53.279,181.975L55.367,177.353L57.391,170.87L59.479,165.886L61.567,164.875L63.453,165.822L65.538,166.917L67.559,165.119L69.647,164.274L71.667,156.114L73.756,161.027L75.844,167.891L77.864,167.238L79.952,166.803L81.976,165.35L84.064,166.393L86.152,166.228L88.105,163.929L90.191,165.279L92.211,163.795L94.299,164.971L96.32,161.787L98.408,159.397L100.496,160.916L102.517,168.591L104.605,166.846L106.628,163.376L108.716,163.234L110.805,163.041L112.691,164.058L114.776,169.166L116.796,168.414L118.885,165.607L120.905,164.264L122.993,159.302L125.081,156.266L127.102,161.092L129.19,159.247L131.214,154.689L133.302,151.58L135.39,153.154L137.276,152.621L139.361,148.264L141.382,160.108L143.47,166.42L145.49,165.215L147.578,164.847L149.667,165.488L151.687,168.541L153.775,169.184L155.799,167.184L157.887,162.65L159.975,165.34L161.861,168.096L163.946,167.668L165.967,168.373L168.055,171.739L170.076,168.07L172.164,168.295L174.252,172.362L176.272,174.782L178.36,174.73L180.384,166.52L182.472,165.089L184.56,167.199L186.513,174.122L188.599,176.652L190.619,172.084L192.707,175.881L194.728,177.353L196.816,180.792L198.904,181.162L200.925,182.61L203.013,185.376L205.036,181.259L207.125,180.148L209.213,180.22L211.099,183.113L213.184,183.357L215.205,182.517L217.293,189.347L219.313,190.161L221.401,189.858L223.489,189.187L225.51,193.106L227.598,194.668L229.622,194.537L231.71,194.097L233.798,199.79L235.684,204.34L237.769,207.519L239.79,205.035L241.878,208.018L243.898,209.752L245.987,209.546L248.075,210.301L250.095,214.35L252.183,220.162L254.207,220.604L256.295,219.084L258.383,216.169L260.269,218.448L262.354,221.001L264.375,222.396L266.463,225.318L268.484,225.582L270.572,228.085L272.66,231.357L274.68,233.039L276.769,230.562L278.792,233.306L280.88,232.122L282.968,234.114L284.921,238.771L287.007,238.998L289.027,241.157L291.115,241.87L293.136,239.646L295.224,243.318L297.312,243.166L299.333,245.529L301.421,242.359L303.445,239.668L305.533,242.597L307.621,243.681L309.507,246.125L311.592,246.506L313.613,246.279L315.701,246.648L317.721,247.068L319.809,246.671L321.897,247.769L323.918,249.061L326.006,250.677L328.03,251.347L330.118,252.327L332.206,253.763L334.092,257.281L336.177,253.112L338.198,251.157L340.286,251.675L342.307,253.085L344.395,253.443L346.483,253.961L348.503,256.049L350.591,257.116L352.615,258.7L354.703,255.983L356.791,260.345L358.677,263.209L360.762,260.692L362.783,258.833L364.871,258.671L366.892,261.08L368.98,257.62L371.068,255.389L373.089,260.768L375.177,259.868L377.2,260.509L379.288,259.45L381.376,261.095L383.33,256.765L385.415,261.511L387.436,262.936L389.524,258.946L391.544,263.632L393.632,259.678L395.72,263.876L397.741,259.2L399.829,260.39L401.853,264.442L403.941,260.713L406.029,266.34L407.915,268.257L410,264.578" data-legend="php" style="stroke: rgb(127, 127, 127); fill: none;"></path><path class="line" d="M2.088,284.324L4.109,285.102L6.197,287.045L8.22,281.332L10.308,284.397L12.396,284.314L14.282,288.763L16.368,287.231L18.388,287.154L20.476,285.298L22.497,286.642L24.585,287.197L26.673,287.366L28.694,286.944L30.782,285.875L32.806,288.338L34.894,288.787L36.982,286.955L38.868,287.423L40.953,287.791L42.974,290.732L45.062,287.644L47.082,287.961L49.17,285.621L51.258,287.352L53.279,286.892L55.367,288.791L57.391,287.907L59.479,290.048L61.567,290.241L63.453,289.929L65.538,290.338L67.559,290.246L69.647,290.361L71.667,288.976L73.756,290.419L75.844,291.726L77.864,290.754L79.952,290.633L81.976,291.243L84.064,291.822L86.152,291.638L88.105,292.31L90.191,292.159L92.211,291.897L94.299,290.464L96.32,292.083L98.408,290.949L100.496,291.577L102.517,292.333L104.605,292.762L106.628,293.143L108.716,292.956L110.805,291.802L112.691,291.763L114.776,291.771L116.796,290.886L118.885,291.21L120.905,290.923L122.993,291.767L125.081,293.045L127.102,292.562L129.19,292.156L131.214,292.245L133.302,292.808L135.39,292.94L137.276,292.646L139.361,292.882L141.382,292.404L143.47,292.98L145.49,293.033L147.578,292.955L149.667,293.114L151.687,293.777L153.775,293.362L155.799,293.879L157.887,294.029L159.975,294.355L161.861,294.331L163.946,294.902L165.967,295.217L168.055,294.893L170.076,295.014L172.164,294.871L174.252,295.6L176.272,295.52L178.36,295.618L180.384,295.336L182.472,295.852L184.56,295.521L186.513,296.088L188.599,295.776L190.619,295.675L192.707,296.023L194.728,296.053L196.816,295.723L198.904,295.454L200.925,296.141L203.013,296.458L205.036,296.505L207.125,296.916L209.213,296.165L211.099,296.575L213.184,296.513L215.205,296.798L217.293,297.045L219.313,296.976L221.401,296.622L223.489,296.918L225.51,296.695L227.598,297.362L229.622,297.247L231.71,297.42L233.798,297.463L235.684,297.186L237.769,297.37L239.79,297.56L241.878,297.393L243.898,297.394L245.987,297.572L248.075,297.594L250.095,297.076L252.183,297.352L254.207,297.207L256.295,297.029L258.383,297.106L260.269,297.569L262.354,297.736L264.375,297.524L266.463,297.068L268.484,297.352L270.572,297.627L272.66,297.534L274.68,297.691L276.769,297.5L278.792,297.995L280.88,298.096L282.968,297.924L284.921,297.876L287.007,297.975L289.027,298.079L291.115,298.051L293.136,298.207L295.224,297.812L297.312,298.016L299.333,297.972L301.421,298.12L303.445,298.346L305.533,298.246L307.621,298.29L309.507,298.269L311.592,298.306L313.613,298.482L315.701,297.977L317.721,298.118L319.809,298.365L321.897,298.419L323.918,298.194L326.006,298.906L328.03,298.491L330.118,298.213L332.206,298.573L334.092,298.589L336.177,298.52L338.198,298.675L340.286,298.133L342.307,298.077L344.395,298.261L346.483,298.663L348.503,298.709L350.591,298.348L352.615,298.359L354.703,298.761L356.791,298.46L358.677,298.186L360.762,298.645L362.783,298.677L364.871,298.561L366.892,298.244L368.98,298.646L371.068,298.139L373.089,298.286L375.177,298.519L377.2,297.886L379.288,298.825L381.376,298.672L383.33,298.23L385.415,299.049L387.436,298.773L389.524,298.908L391.544,298.737L393.632,298.287L395.72,298.762L397.741,298.995L399.829,298.669L401.853,298.366L403.941,298.345L406.029,298.92L407.915,298.388L410,298.444" data-legend="perl" style="stroke: rgb(188, 189, 34); fill: none;"></path><path class="line" d="M2.088,265.366L4.109,271.369L6.197,279.432L8.22,277.682L10.308,278.091L12.396,272.477L14.282,272.816L16.368,271.766L18.388,273.783L20.476,274.241L22.497,273.962L24.585,275.013L26.673,275.602L28.694,277.186L30.782,271.312L32.806,274.532L34.894,274.425L36.982,274.135L38.868,277.684L40.953,274.708L42.974,274.885L45.062,274.32L47.082,274.815L49.17,273.832L51.258,274.293L53.279,275.63L55.367,277.63L57.391,275.306L59.479,274.709L61.567,274.7L63.453,272.721L65.538,274.042L67.559,273.776L69.647,273.599L71.667,273.578L73.756,270.944L75.844,274.498L77.864,273.344L79.952,273.156L81.976,272.864L84.064,272.593L86.152,272.276L88.105,272.482L90.191,274.385L92.211,275.387L94.299,275.721L96.32,275.572L98.408,275.562L100.496,275.127L102.517,274.705L104.605,275.807L106.628,276.331L108.716,275.471L110.805,275.703L112.691,275.268L114.776,275.863L116.796,276.385L118.885,276.388L120.905,276.801L122.993,275.5L125.081,275.785L127.102,274.539L129.19,275.444L131.214,275.236L133.302,275.461L135.39,276.758L137.276,276.161L139.361,276.233L141.382,274.445L143.47,275.878L145.49,275.759L147.578,274.686L149.667,277.046L151.687,277.196L153.775,278.69L155.799,276.784L157.887,275.457L159.975,277.442L161.861,278.213L163.946,277.804L165.967,277.321L168.055,276.934L170.076,277.76L172.164,278.546L174.252,279.584L176.272,280.218L178.36,281.515L180.384,280.18L182.472,280.044L184.56,279.879L186.513,281.112L188.599,281.017L190.619,281.032L192.707,280.755L194.728,281.891L196.816,282.596L198.904,281.065L200.925,282.482L203.013,283.093L205.036,283.096L207.125,282.623L209.213,284.392L211.099,285.028L213.184,285.987L215.205,286.286L217.293,286.629L219.313,285.725L221.401,286.765L223.489,287.296L225.51,287.146L227.598,288.298L229.622,288.198L231.71,287.783L233.798,288.662L235.684,289.654L237.769,289.762L239.79,289.595L241.878,289.168L243.898,290.042L245.987,290.653L248.075,290.916L250.095,290.562L252.183,290.575L254.207,289.673L256.295,289.623L258.383,290.926L260.269,291.16L262.354,291.528L264.375,291.484L266.463,291.242L268.484,291.506L270.572,290.408L272.66,291.141L274.68,290.599L276.769,292.192L278.792,291.481L280.88,291.22L282.968,292.396L284.921,292.306L287.007,292.935L289.027,293.702L291.115,293.985L293.136,292.92L295.224,293.697L297.312,293.882L299.333,294.143L301.421,293.722L303.445,293.712L305.533,293.686L307.621,293.187L309.507,294.364L311.592,293.573L313.613,294.953L315.701,294.51L317.721,293.932L319.809,293.833L321.897,293.731L323.918,294.128L326.006,294.447L328.03,294.478L330.118,293.733L332.206,294.009L334.092,293.931L336.177,293.623L338.198,293.665L340.286,293.578L342.307,293.849L344.395,293.645L346.483,293.493L348.503,294.072L350.591,293.638L352.615,294.03L354.703,294.312L356.791,293.838L358.677,294.887L360.762,295.123L362.783,294.326L364.871,294.91L366.892,294.598L368.98,295.062L371.068,294.704L373.089,294.696L375.177,295.556L377.2,294.854L379.288,294.731L381.376,294.985L383.33,295.443L385.415,295.778L387.436,296.255L389.524,295.742L391.544,296.397L393.632,295.445L395.72,296.109L397.741,296.623L399.829,295.64L401.853,296.297L403.941,296.53L406.029,296.126L407.915,296.356L410,296.43" data-legend="ruby" style="stroke: rgb(23, 190, 207); fill: none;"></path><path class="line" d="M2.088,300L4.109,300L6.197,300L8.22,300L10.308,299.893L12.396,299.904L14.282,299.917L16.368,300L18.388,299.869L20.476,300L22.497,300L24.585,299.845L26.673,299.847L28.694,299.954L30.782,299.868L32.806,299.955L34.894,300L36.982,299.925L38.868,299.968L40.953,299.933L42.974,299.968L45.062,299.909L47.082,299.972L49.17,299.947L51.258,299.945L53.279,299.974L55.367,299.976L57.391,299.952L59.479,299.916L61.567,299.899L63.453,299.95L65.538,299.947L67.559,299.983L69.647,299.932L71.667,299.799L73.756,299.874L75.844,299.901L77.864,299.9L79.952,299.938L81.976,299.967L84.064,299.913L86.152,299.877L88.105,299.949L90.191,299.934L92.211,299.912L94.299,299.948L96.32,299.893L98.408,299.94L100.496,299.911L102.517,299.955L104.605,299.954L106.628,299.95L108.716,299.947L110.805,299.934L112.691,299.951L114.776,299.941L116.796,299.98L118.885,299.957L120.905,299.933L122.993,299.96L125.081,299.908L127.102,299.909L129.19,299.952L131.214,299.898L133.302,299.946L135.39,299.892L137.276,299.959L139.361,299.965L141.382,299.914L143.47,275.276L145.49,284.487L147.578,282.618L149.667,280.794L151.687,276.065L153.775,274.248L155.799,273.148L157.887,269.12L159.975,267.704L161.861,268.155L163.946,264.446L165.967,265.641L168.055,261.282L170.076,255.71L172.164,252.865L174.252,257.005L176.272,261.205L178.36,259.234L180.384,257.358L182.472,255.558L184.56,257.564L186.513,257.641L188.599,259.33L190.619,260.798L192.707,256.196L194.728,253.03L196.816,254.565L198.904,252.267L200.925,254.468L203.013,257.964L205.036,259.213L207.125,258.658L209.213,261.027L211.099,261.44L213.184,263.11L215.205,263.037L217.293,260.341L219.313,259.205L221.401,260.362L223.489,260.91L225.51,261.427L227.598,263.414L229.622,262.875L231.71,260.662L233.798,262.567L235.684,260.552L237.769,263.01L239.79,263.623L241.878,265.739L243.898,261.259L245.987,261.928L248.075,263.231L250.095,265.563L252.183,266.372L254.207,264.447L256.295,267.169L258.383,269.097L260.269,269.101L262.354,266.211L264.375,265.355L266.463,261.611L268.484,266.011L270.572,268.752L272.66,268.33L274.68,265.571L276.769,267.387L278.792,266.117L280.88,266.69L282.968,267.926L284.921,268.54L287.007,268.265L289.027,268.281L291.115,269.04L293.136,269.655L295.224,269.545L297.312,269.576L299.333,272.442L301.421,273.034L303.445,273.622L305.533,272.145L307.621,271.101L309.507,272.949L311.592,273.782L313.613,276.612L315.701,276.621L317.721,273.343L319.809,273.918L321.897,277.238L323.918,277.807L326.006,278.285L328.03,278.714L330.118,275.582L332.206,276.317L334.092,276.257L336.177,278.664L338.198,278.87L340.286,277.151L342.307,277.656L344.395,277.876L346.483,275.733L348.503,278.901L350.591,277.932L352.615,278.704L354.703,279.012L356.791,279.047L358.677,278.238L360.762,278.056L362.783,279.518L364.871,275.272L366.892,274.773L368.98,278.302L371.068,277.117L373.089,276.228L375.177,276.096L377.2,276.146L379.288,275.008L381.376,278.022L383.33,277.403L385.415,277.523L387.436,280.532L389.524,277.144L391.544,277.266L393.632,275.055L395.72,273.869L397.741,276.404L399.829,277.693L401.853,277.075L403.941,276.513L406.029,274.66L407.915,276.386L410,276.934" data-legend="swift" style="stroke: rgb(31, 119, 180); fill: none;"></path><path class="line" d="M2.088,299.271L4.109,300L6.197,299.866L8.22,299.86L10.308,299.145L12.396,299.23L14.282,299.669L16.368,299.048L18.388,299.869L20.476,299.701L22.497,297.443L24.585,297.574L26.673,292.942L28.694,296.608L30.782,295.921L32.806,296.425L34.894,296.475L36.982,295.413L38.868,295.517L40.953,294.619L42.974,295.495L45.062,294.683L47.082,293.552L49.17,292.52L51.258,293.539L53.279,294.356L55.367,294.178L57.391,294.606L59.479,294.761L61.567,293.467L63.453,292.963L65.538,291.658L67.559,292.865L69.647,292.486L71.667,292.41L73.756,290.781L75.844,289.872L77.864,289.704L79.952,290.618L81.976,290.02L84.064,289.956L86.152,288.918L88.105,288.762L90.191,289.001L92.211,289.031L94.299,287.531L96.32,286.805L98.408,287.09L100.496,286.544L102.517,285.79L104.605,284.706L106.628,284.955L108.716,283.925L110.805,281.788L112.691,282.157L114.776,282.017L116.796,282.025L118.885,281.236L120.905,281.33L122.993,281.078L125.081,282.648L127.102,280.97L129.19,279.213L131.214,280.617L133.302,279.164L135.39,276.587L137.276,277.378L139.361,276.432L141.382,275.355L143.47,275.213L145.49,275.036L147.578,274.645L149.667,276.102L151.687,273.09L153.775,272.72L155.799,274.494L157.887,272.837L159.975,270.406L161.861,268.421L163.946,270.539L165.967,268.99L168.055,269.342L170.076,265.674L172.164,267.555L174.252,268.498L176.272,266.779L178.36,266.579L180.384,268.945L182.472,267.116L184.56,267.964L186.513,266.185L188.599,264.662L190.619,266.211L192.707,264.672L194.728,264.249L196.816,264.875L198.904,267.465L200.925,263.632L203.013,265.771L205.036,267.285L207.125,266.755L209.213,264.65L211.099,261.482L213.184,259.831L215.205,261.038L217.293,257.973L219.313,257.082L221.401,256.642L223.489,256.12L225.51,255.015L227.598,255.049L229.622,256.916L231.71,255.827L233.798,250.457L235.684,250.236L237.769,250.922L239.79,252.361L241.878,250.986L243.898,253.388L245.987,256.185L248.075,256.072L250.095,254.108L252.183,252.308L254.207,256.529L256.295,255.34L258.383,250.938L260.269,252.82L262.354,249.278L264.375,251.887L266.463,250.832L268.484,252.972L270.572,251.212L272.66,251.269L274.68,251.43L276.769,251.144L278.792,252.285L280.88,252.314L282.968,245.556L284.921,244.601L287.007,242.901L289.027,245.526L291.115,246.517L293.136,249.74L295.224,248.835L297.312,243.25L299.333,239.6L301.421,239.891L303.445,245.325L305.533,247.568L307.621,244.478L309.507,241.241L311.592,240.341L313.613,241.081L315.701,243.889L317.721,244.9L319.809,244.149L321.897,245.03L323.918,240.815L326.006,242.909L328.03,246.656L330.118,245.507L332.206,241.929L334.092,238.689L336.177,238.227L338.198,239.799L340.286,240.987L342.307,244.263L344.395,243.341L346.483,242.398L348.503,237.675L350.591,238.353L352.615,243.95L354.703,243.212L356.791,235.481L358.677,236.315L360.762,235.965L362.783,239.623L364.871,241.218L366.892,245.414L368.98,243.653L371.068,244.156L373.089,244.047L375.177,244.145L377.2,246.149L379.288,244.462L381.376,242.547L383.33,245.353L385.415,248.314L387.436,255.833L389.524,256.871L391.544,257.652L393.632,260.137L395.72,262.284L397.741,260.245L399.829,259.839L401.853,264.224L403.941,264.716L406.029,260.053L407.915,260.339L410,256.432" data-legend="r" style="stroke: rgb(255, 127, 14); fill: none;"></path><path class="line" d="M2.088,293.924L4.109,289.525L6.197,285.843L8.22,282.735L10.308,284.717L12.396,279.791L14.282,275.956L16.368,271.766L18.388,267.229L20.476,270.715L22.497,264.622L24.585,263.966L26.673,264.503L28.694,265.245L30.782,266.75L32.806,265.059L34.894,262.875L36.982,262.105L38.868,263.558L40.953,261.121L42.974,257.677L45.062,256.707L47.082,246.558L49.17,250.571L51.258,254.551L53.279,254.214L55.367,255.864L57.391,255.764L59.479,254.236L61.567,250.758L63.453,249.343L65.538,243.384L67.559,241.475L69.647,243.323L71.667,238.428L73.756,239.89L75.844,246.034L77.864,245.922L79.952,245.164L81.976,246.316L84.064,245.566L86.152,247.817L88.105,251.919L90.191,249.164L92.211,251.809L94.299,251.325L96.32,249.051L98.408,250.064L100.496,256.93L102.517,253.806L104.605,256.404L106.628,253.857L108.716,256.617L110.805,257.238L112.691,257.367L114.776,260.259L116.796,261.498L118.885,264.284L120.905,264.275L122.993,264.969L125.081,259.97L127.102,259.333L129.19,261.669L131.214,259.553L133.302,260.818L135.39,259.068L137.276,259.432L139.361,259.757L141.382,260.317L143.47,261.268L145.49,260.427L147.578,262.029L149.667,262.187L151.687,264.175L153.775,267.084L155.799,267.254L157.887,269.76L159.975,268.414L161.861,270.971L163.946,270.077L165.967,271.622L168.055,272.097L170.076,271.462L172.164,272.377L174.252,272.794L176.272,274.444L178.36,277.899L180.384,277.999L182.472,278.059L184.56,279.171L186.513,280.944L188.599,280.957L190.619,282.263L192.707,281.03L194.728,282.177L196.816,283.228L198.904,283.491L200.925,284.324L203.013,285.004L205.036,284.48L207.125,286.051L209.213,287.128L211.099,287.917L213.184,289.256L215.205,289.316L217.293,288.447L219.313,289.632L221.401,290.647L223.489,290.774L225.51,291.493L227.598,291.915L229.622,292.589L231.71,293.049L233.798,293.526L235.684,294.197L237.769,294.242L239.79,294.122L241.878,294.721L243.898,294.618L245.987,294.974L248.075,295.176L250.095,295.629L252.183,296.176L254.207,296.528L256.295,296.348L258.383,296.632L260.269,296.822L262.354,296.51L264.375,296.93L266.463,296.806L268.484,297.273L270.572,297.404L272.66,296.915L274.68,296.47L276.769,296.895L278.792,296.871L280.88,296.942L282.968,297.084L284.921,297.432L287.007,297.355L289.027,297.553L291.115,297.834L293.136,297.097L295.224,297.652L297.312,297.323L299.333,297.053L301.421,297.369L303.445,297.98L305.533,298.198L307.621,297.737L309.507,298.042L311.592,297.982L313.613,298.381L315.701,298.161L317.721,298.337L319.809,298.309L321.897,298.489L323.918,298.18L326.006,298.182L328.03,298.356L330.118,298.1L332.206,298.617L334.092,298.89L336.177,298.298L338.198,298.777L340.286,298.588L342.307,298.703L344.395,298.756L346.483,298.646L348.503,298.693L350.591,298.518L352.615,299.022L354.703,299.058L356.791,298.914L358.677,298.842L360.762,299.015L362.783,298.448L364.871,299.041L366.892,298.893L368.98,298.984L371.068,299.133L373.089,299.062L375.177,298.788L377.2,298.564L379.288,299.039L381.376,298.894L383.33,298.795L385.415,298.745L387.436,298.773L389.524,298.835L391.544,298.737L393.632,299.039L395.72,297.966L397.741,298.673L399.829,298.853L401.853,298.312L403.941,298.772L406.029,299.047L407.915,298.528L410,298.993" data-legend="objective-c" style="stroke: rgb(44, 160, 44); fill: none;"></path></g></g><g transform="translate(20, 150)"><text font-family="sans-serif" transform="rotate(-90)" x="-50" y="0" dy="1em" class="axis-label y-axis-label" style="text-anchor: middle; font-weight: bold;">% of Stack Overflow questions that month</text></g><g font-family="sans-serif" class="legend" transform="translate(530, 20)" style="font-size: 12px;"><rect y="0" width="10" height="10" style="fill: rgb(31, 119, 180);"></rect><rect y="15" width="10" height="10" style="fill: rgb(255, 127, 14);"></rect><rect y="30" width="10" height="10" style="fill: rgb(44, 160, 44);"></rect><rect y="45" width="10" height="10" style="fill: rgb(214, 39, 40);"></rect><rect y="60" width="10" height="10" style="fill: rgb(148, 103, 189);"></rect><rect y="75" width="10" height="10" style="fill: rgb(140, 86, 75);"></rect><rect y="90" width="10" height="10" style="fill: rgb(227, 119, 194);"></rect><rect y="105" width="10" height="10" style="fill: rgb(127, 127, 127);"></rect><rect y="120" width="10" height="10" style="fill: rgb(188, 189, 34);"></rect><rect y="135" width="10" height="10" style="fill: rgb(23, 190, 207);"></rect><rect y="150" width="10" height="10" style="fill: rgb(31, 119, 180);"></rect><rect y="165" width="10" height="10" style="fill: rgb(255, 127, 14);"></rect><rect y="180" width="10" height="10" style="fill: rgb(44, 160, 44);"></rect><text font-size="10px" x="13" y="5" text-anchor="left">java</text><text font-size="10px" x="13" y="20" text-anchor="left">c</text><text font-size="10px" x="13" y="35" text-anchor="left">c++</text><text font-size="10px" x="13" y="50" text-anchor="left">python</text><text font-size="10px" x="13" y="65" text-anchor="left">vb.net</text><text font-size="10px" x="13" y="80" text-anchor="left">javascript</text><text font-size="10px" x="13" y="95" text-anchor="left">assembly</text><text font-size="10px" x="13" y="110" text-anchor="left">php</text><text font-size="10px" x="13" y="125" text-anchor="left">perl</text><text font-size="10px" x="13" y="140" text-anchor="left">ruby</text><text font-size="10px" x="13" y="155" text-anchor="left">swift</text><text font-size="10px" x="13" y="170" text-anchor="left">r</text><text font-size="10px" x="13" y="185" text-anchor="left">objective-c</text></g></svg>